{"glyphs":{"0":{"ha":1215,"x_min":53,"x_max":1164,"o":"m 608 -25 q 383 18 485 -25 q 208 138 281 61 q 53 551 53 300 q 204 958 53 802 q 608 1114 356 1114 q 1012 958 861 1114 q 1164 547 1164 802 q 1123 319 1164 424 q 1009 138 1082 214 q 834 18 936 61 q 608 -25 732 -25 m 488 526 q 608 309 488 309 q 729 526 729 309 q 717 675 729 632 q 692 739 705 718 q 608 785 663 785 q 488 578 493 784 q 488 526 488 549 z "},"1":{"ha":783,"x_min":14,"x_max":701,"o":"m 254 583 l 14 496 l 14 825 l 576 1083 l 701 1083 l 701 0 l 254 0 l 254 583 z "},"2":{"ha":1171,"x_min":46,"x_max":1103,"o":"m 129 196 l 542 542 q 625 688 625 612 q 599 753 625 728 q 534 779 573 779 q 456 766 494 779 q 205 595 327 724 l 46 823 q 293 1036 129 960 q 643 1112 457 1112 q 956 1025 829 1112 q 1096 758 1096 928 q 980 506 1096 623 q 857 398 920 445 q 758 325 793 352 l 1103 325 l 1103 0 l 129 0 l 129 196 z "},"3":{"ha":1257,"x_min":54,"x_max":1194,"o":"m 215 407 q 604 292 387 292 q 697 318 663 292 q 730 378 730 345 q 719 432 730 412 q 688 467 707 452 q 498 513 625 513 q 432 510 448 513 l 350 653 q 534 787 350 665 l 125 787 l 125 1083 l 1171 1083 l 1171 961 l 822 696 q 1194 355 1194 650 q 1105 121 1194 212 q 635 -25 964 -25 q 198 58 393 -26 q 54 144 121 91 l 215 407 z "},"4":{"ha":1270,"x_min":32,"x_max":1206,"o":"m 32 465 l 458 1084 l 1109 1084 l 1109 476 l 1206 476 l 1206 146 l 1109 146 l 1109 0 l 652 0 l 652 146 l 32 146 l 32 465 m 454 465 l 652 465 l 652 772 l 454 465 z "},"5":{"ha":1221,"x_min":46,"x_max":1158,"o":"m 207 379 q 568 292 366 292 q 661 318 627 292 q 694 377 694 345 q 686 426 694 409 q 663 454 677 443 q 601 478 637 473 q 508 484 565 484 q 325 458 450 484 l 127 541 l 241 1084 l 1140 1084 l 1083 811 l 550 811 l 530 701 q 654 710 595 710 q 773 703 713 710 q 889 678 833 695 q 1085 564 1012 641 q 1158 352 1158 486 q 1070 125 1158 217 q 599 -25 928 -24 q 183 45 367 -25 q 46 117 110 73 l 207 379 z "},"6":{"ha":1211,"x_min":50,"x_max":1160,"o":"m 655 665 q 1160 343 1160 665 q 1078 117 1160 205 q 650 -25 946 -26 q 235 110 407 -25 q 50 501 50 254 q 223 953 50 784 q 654 1114 386 1114 q 950 1037 808 1114 q 1117 829 1092 961 l 777 736 q 720 798 755 777 q 650 819 684 819 q 541 782 583 819 q 497 672 498 745 l 497 659 q 498 643 497 652 q 655 665 583 665 m 574 277 q 631 229 599 246 q 688 212 664 212 q 772 270 772 212 q 757 345 772 299 q 703 441 741 391 l 519 441 q 574 277 519 342 z "},"7":{"ha":1193,"x_min":66,"x_max":1171,"o":"m 650 781 l 207 771 q 115 781 163 771 q 66 793 66 790 l 66 1084 l 1171 1084 l 1171 1002 l 681 0 l 114 0 l 650 751 l 650 781 z "},"8":{"ha":1200,"x_min":58,"x_max":1141,"o":"m 600 -25 q 83 175 181 -24 q 58 289 58 227 q 107 471 58 406 q 264 585 156 536 q 134 683 168 635 q 99 810 99 731 q 123 934 98 888 q 392 1095 191 1055 q 566 1114 489 1114 q 698 1109 644 1114 q 893 1072 816 1101 q 1010 1011 970 1043 q 1101 835 1101 941 q 1066 682 1101 730 q 936 585 1031 634 q 1093 470 1044 536 q 1141 285 1142 405 q 1048 88 1141 165 q 600 -25 914 -24 m 669 304 q 707 377 707 327 q 675 458 707 428 q 600 489 643 489 q 525 458 557 489 q 493 389 493 428 q 502 333 493 350 q 531 304 511 316 q 600 292 551 292 q 669 304 650 292 m 600 836 q 509 761 509 836 q 541 691 509 719 q 646 680 600 640 q 692 752 692 720 q 666 821 692 805 q 600 836 640 836 z "},"9":{"ha":1210,"x_min":50,"x_max":1160,"o":"m 454 819 q 524 647 454 735 l 707 647 q 653 812 707 747 q 526 876 600 877 q 461 845 480 876 q 454 819 454 834 m 711 440 q 566 424 650 424 q 422 430 481 424 q 308 450 362 435 q 50 746 50 517 q 137 972 50 883 q 587 1114 275 1114 q 983 979 819 1114 q 1160 587 1160 836 q 1080 258 1160 401 q 867 48 1004 121 q 566 -25 730 -25 q 267 47 403 -26 q 126 174 175 98 q 93 260 102 213 q 433 353 98 261 q 490 291 454 312 q 559 269 526 269 q 669 307 626 269 q 713 416 712 345 l 713 427 q 711 440 713 431 z "},"\r":{"ha":990,"x_min":0,"x_max":0,"o":""},"\u0000":{"ha":0,"x_min":0,"x_max":0,"o":""},"\u0001":{"ha":0,"x_min":0,"x_max":0,"o":""},"\u0002":{"ha":0,"x_min":0,"x_max":0,"o":""},"\u0003":{"ha":0,"x_min":0,"x_max":0,"o":""},"\u0004":{"ha":0,"x_min":0,"x_max":0,"o":""},"\u0005":{"ha":0,"x_min":0,"x_max":0,"o":""},"\u0006":{"ha":0,"x_min":0,"x_max":0,"o":""},"\u0007":{"ha":0,"x_min":0,"x_max":0,"o":""},"\b":{"ha":0,"x_min":0,"x_max":0,"o":""},"\t":{"ha":0,"x_min":0,"x_max":0,"o":""},"\u0010":{"ha":0,"x_min":0,"x_max":0,"o":""},"\u0011":{"ha":0,"x_min":0,"x_max":0,"o":""},"\u0012":{"ha":0,"x_min":0,"x_max":0,"o":""},"\u0013":{"ha":0,"x_min":0,"x_max":0,"o":""},"\u0014":{"ha":0,"x_min":0,"x_max":0,"o":""}," ":{"ha":347,"x_min":0,"x_max":0,"o":""},"!":{"ha":522,"x_min":68,"x_max":460,"o":"m 390 433 l 138 433 l 68 1084 l 460 1084 l 390 433 m 281 325 q 361 312 328 325 q 416 275 395 298 q 460 159 460 231 q 404 32 460 88 q 252 -25 347 -24 q 113 21 157 -25 q 69 138 69 68 q 130 266 69 208 q 281 325 190 325 z "},"\"":{"ha":893,"x_min":66,"x_max":823,"o":"m 768 572 l 543 572 l 473 1083 l 823 1083 l 768 572 m 361 572 l 136 572 l 66 1083 l 416 1083 l 361 572 z "},"#":{"ha":1394,"x_min":52,"x_max":1354,"o":"m 143 842 l 253 842 l 288 1083 l 717 1083 l 661 842 l 818 842 l 871 1083 l 1328 1083 l 1238 842 l 1354 842 l 1299 639 l 1162 639 l 1096 461 l 1249 461 l 1193 258 l 1021 258 l 925 0 l 635 0 l 690 258 l 526 258 l 467 0 l 135 0 l 171 258 l 52 258 l 79 461 l 199 461 l 224 639 l 115 639 l 143 842 m 572 461 l 734 461 l 774 639 l 614 639 l 572 461 z "},"$":{"ha":937,"x_min":46,"x_max":901,"o":"m 307 306 q 375 347 375 306 q 323 407 375 378 q 271 433 300 419 q 210 466 241 448 q 46 747 46 564 q 76 906 46 846 q 416 1107 159 1074 l 422 1222 l 526 1222 l 521 1112 q 795 1084 657 1111 q 833 1075 824 1078 l 833 755 q 568 794 652 794 q 521 784 536 794 q 505 762 505 773 q 520 734 505 746 q 578 705 534 722 q 663 671 621 688 q 857 523 806 613 q 900 345 901 448 q 869 177 900 242 q 781 66 838 111 q 463 -25 665 -23 l 457 -139 l 353 -139 l 358 -22 q 111 18 206 -14 q 49 49 70 33 l 49 370 q 65 363 52 369 q 202 321 141 336 q 307 306 264 305 z "},"%":{"ha":2252,"x_min":40,"x_max":2208,"o":"m 1697 499 q 1681 474 1697 499 q 1664 382 1664 450 q 1697 263 1664 314 q 1790 213 1731 212 q 1882 262 1849 213 q 1915 379 1915 311 q 1845 534 1915 489 q 1790 549 1822 549 q 1697 499 1731 549 m 1790 -25 q 1691 -25 1790 -25 q 1482 95 1592 -25 q 1372 380 1372 216 q 1476 659 1372 545 q 1790 786 1592 786 q 2104 659 1987 786 q 2208 380 2208 546 q 2104 102 2208 215 q 1790 -25 1987 -25 m 403 861 q 332 709 333 817 q 365 590 331 640 q 458 539 399 539 q 550 589 517 540 q 583 705 583 638 q 513 860 583 815 q 458 875 490 875 q 403 861 427 875 m 458 301 q 359 301 458 301 q 150 421 260 301 q 40 707 40 542 q 144 985 40 871 q 458 1112 260 1112 q 772 985 655 1112 q 876 707 876 872 q 772 428 876 541 q 458 301 655 301 m 970 0 l 790 0 l 1165 1083 l 1567 1083 l 970 0 z "},"&":{"ha":1520,"x_min":45,"x_max":1485,"o":"m 815 859 q 729 920 815 920 q 672 901 699 920 q 646 858 646 882 q 668 807 646 833 l 705 764 q 730 776 712 768 q 815 859 815 814 m 929 501 q 1165 771 1102 631 l 1485 685 q 1377 455 1485 594 q 1173 264 1268 316 q 1317 151 1252 189 q 1483 94 1383 113 l 1483 0 l 916 0 l 852 69 q 715 1 777 17 q 421 -19 557 -41 q 195 63 286 4 q 45 340 45 162 q 120 563 45 471 q 334 703 195 654 q 374 718 362 713 q 330 854 330 801 q 346 942 330 907 q 528 1086 389 1041 q 722 1112 609 1112 q 937 1061 836 1112 q 1046 956 1013 1022 q 1062 881 1062 921 q 1047 808 1063 840 q 1007 749 1031 776 q 955 700 983 722 q 900 661 926 677 q 854 633 874 644 q 829 616 835 622 l 929 501 m 524 497 q 447 386 447 460 q 500 301 446 326 q 533 293 518 293 q 602 302 563 293 q 663 326 642 312 l 524 497 z "},"'":{"ha":456,"x_min":50,"x_max":400,"o":"m 345 572 l 119 572 l 50 1083 l 400 1083 l 345 572 z "},"(":{"ha":693,"x_min":28,"x_max":611,"o":"m 608 904 q 418 605 457 788 q 407 496 407 551 q 421 389 407 442 q 463 296 435 336 q 611 205 522 206 l 611 -45 q 205 99 370 -45 q 50 350 94 198 q 28 542 28 427 q 70 769 28 656 q 189 962 113 882 q 608 1135 350 1132 l 608 904 z "},")":{"ha":694,"x_min":83,"x_max":667,"o":"m 86 1135 q 506 962 345 1132 q 667 523 667 792 q 489 99 667 254 q 83 -45 325 -45 l 83 205 q 230 293 172 206 q 288 500 288 380 q 178 814 288 673 q 86 904 140 863 l 86 1135 z "},"*":{"ha":1032,"x_min":50,"x_max":982,"o":"m 515 1190 q 636 1050 636 1190 q 610 916 636 1004 q 567 765 572 791 l 591 789 q 654 852 621 817 q 865 993 788 993 q 944 956 906 993 q 982 875 982 919 q 963 806 982 831 q 913 764 944 781 q 843 734 882 746 q 764 712 804 722 q 686 693 724 702 q 619 673 648 684 q 683 659 646 667 q 760 642 720 652 q 982 484 982 585 q 944 392 982 430 q 868 354 906 354 q 794 376 829 354 q 723 430 758 398 q 655 497 688 462 q 591 559 622 532 l 570 579 l 576 551 q 593 485 583 519 q 620 390 603 451 q 636 293 636 330 q 604 193 636 228 q 515 158 572 159 q 404 233 430 159 q 396 287 396 256 q 404 358 396 317 q 423 439 412 399 q 446 517 434 479 q 464 582 457 554 l 440 559 q 376 497 408 532 q 309 430 343 462 q 167 354 229 354 q 88 390 126 354 q 50 470 50 425 q 70 539 50 514 q 121 583 90 565 q 194 615 153 602 q 275 638 234 628 q 353 656 315 648 q 418 673 391 665 q 353 691 391 682 q 275 709 315 699 q 121 765 172 735 q 50 864 50 806 q 88 958 50 922 q 165 994 125 994 q 240 972 205 994 q 310 919 276 951 q 376 852 344 888 q 440 789 409 817 l 460 771 q 457 784 458 777 q 440 853 452 810 q 412 956 427 897 q 396 1055 396 1016 q 427 1156 396 1122 q 515 1190 458 1190 z "},"+":{"ha":737,"x_min":22,"x_max":715,"o":"m 244 653 l 244 875 l 494 875 l 494 653 l 715 653 l 715 403 l 494 403 l 494 182 l 244 182 l 244 403 l 22 403 l 22 653 l 244 653 z "},",":{"ha":549,"x_min":83,"x_max":496,"o":"m 83 -140 q 190 -71 159 -140 q 205 0 203 -39 l 83 0 l 83 286 l 496 286 l 496 12 q 269 -293 496 -228 q 83 -315 191 -315 l 83 -140 z "},"-":{"ha":684,"x_min":83,"x_max":602,"o":"m 83 618 l 602 618 l 602 325 l 83 325 l 83 618 z "},".":{"ha":515,"x_min":52,"x_max":464,"o":"m 272 373 q 320 374 272 373 q 415 320 367 374 q 464 185 464 266 q 404 40 464 104 q 245 -25 345 -25 q 99 28 146 -24 q 52 160 52 81 q 115 307 52 240 q 272 373 178 373 z "},"/":{"ha":707,"x_min":36,"x_max":688,"o":"m 396 0 l 36 0 l 231 1083 l 688 1083 l 396 0 z "},":":{"ha":486,"x_min":56,"x_max":431,"o":"m 255 875 q 298 875 255 875 q 386 825 340 875 q 431 702 431 774 q 377 571 431 629 q 231 512 323 512 q 98 561 140 513 q 56 681 56 608 q 113 814 56 753 q 255 875 170 875 m 254 363 q 297 363 254 363 q 385 313 339 363 q 431 191 431 263 q 377 59 431 118 q 232 0 323 0 q 98 49 140 0 q 56 170 56 98 q 113 302 56 241 q 254 363 170 363 z "},";":{"ha":528,"x_min":64,"x_max":476,"o":"m 64 -53 q 170 17 139 -53 q 186 87 183 48 l 64 87 l 64 374 l 476 374 l 476 100 q 250 -205 476 -140 q 64 -228 172 -228 l 64 -53 m 287 875 q 329 875 287 875 q 417 825 372 875 q 463 702 463 774 q 408 571 463 629 q 263 513 354 513 q 130 561 172 513 q 87 681 87 608 q 144 814 87 753 q 287 875 201 875 z "},"<":{"ha":685,"x_min":0,"x_max":604,"o":"m 604 611 l 453 519 l 604 432 l 604 94 l 26 482 q 0 535 0 496 q 26 590 0 574 l 604 994 l 604 611 z "},"=":{"ha":785,"x_min":83,"x_max":703,"o":"m 83 618 l 703 618 l 703 416 l 83 416 l 83 618 m 83 239 l 703 239 l 703 37 l 83 37 l 83 239 z "},">":{"ha":688,"x_min":83,"x_max":688,"o":"m 83 478 l 235 570 l 83 657 l 83 994 l 661 607 q 688 555 688 593 q 661 498 688 517 l 83 94 l 83 478 z "},"?":{"ha":783,"x_min":56,"x_max":760,"o":"m 56 1075 q 321 1111 182 1111 q 742 921 665 1111 q 760 823 760 878 q 682 612 760 683 q 605 552 653 585 q 534 498 557 519 q 458 375 480 447 l 211 375 q 191 487 191 436 q 204 569 191 537 q 240 624 218 601 q 286 662 261 646 q 331 692 310 678 q 367 720 353 706 q 380 753 380 734 q 272 832 380 832 q 90 796 195 832 q 56 783 66 788 l 56 1075 m 354 325 q 435 312 401 325 q 490 275 468 298 q 533 159 533 231 q 477 32 533 88 q 326 -25 420 -24 q 188 21 232 -25 q 143 138 144 68 q 203 266 143 208 q 354 325 264 325 z "},"@":{"ha":1607,"x_min":52,"x_max":1565,"o":"m 1190 -61 q 808 -167 1016 -167 q 288 -2 502 -167 q 81 292 139 112 q 52 498 52 384 q 81 711 52 612 q 164 888 111 809 q 439 1122 267 1042 q 808 1203 612 1203 q 1173 1124 1004 1203 q 1535 711 1449 995 q 1565 514 1565 612 q 1538 352 1565 415 q 1466 244 1511 289 q 1236 153 1373 153 q 943 288 1070 153 q 755 152 878 184 q 669 142 718 142 q 566 164 620 142 q 472 233 513 187 q 385 500 384 333 q 467 764 385 667 q 665 861 549 861 q 868 785 781 861 q 916 730 896 761 l 993 836 l 1171 836 l 1171 403 q 1206 342 1171 366 q 1272 318 1242 318 q 1316 327 1301 318 q 1366 473 1366 357 q 1232 868 1367 711 q 1124 958 1187 920 q 812 1039 993 1039 q 500 959 632 1039 q 269 632 319 848 q 253 484 253 566 q 288 313 253 403 q 391 154 322 224 q 808 0 544 0 q 1131 79 993 0 l 1190 -61 m 848 422 q 879 457 867 439 l 879 624 q 735 565 811 624 q 660 433 659 506 q 722 361 660 361 q 848 422 784 361 z "},"A":{"ha":1443,"x_min":22,"x_max":1423,"o":"m 22 0 l 561 1028 q 663 1101 589 1083 q 717 1107 685 1107 q 786 1089 749 1107 q 846 1032 824 1071 l 1423 0 l 873 0 l 831 107 l 538 107 l 501 0 l 22 0 m 571 322 l 790 322 l 686 615 l 571 322 z "},"B":{"ha":1283,"x_min":83,"x_max":1226,"o":"m 83 1083 q 612 1100 452 1100 q 1042 1032 911 1100 q 1158 847 1158 971 q 1119 722 1158 772 q 1000 635 1080 671 q 1155 538 1101 601 q 1226 313 1226 456 q 749 -13 1226 5 q 642 -16 680 -16 q 576 -15 604 -16 q 513 -13 549 -14 q 436 -11 477 -12 q 351 -8 394 -10 q 267 -5 309 -7 q 190 -2 226 -4 q 126 0 154 -1 q 83 3 98 1 l 83 1083 m 775 421 q 708 478 775 478 q 550 419 657 479 q 507 396 525 406 l 507 225 q 525 232 517 229 q 564 247 534 235 q 712 314 673 288 q 775 421 776 357 m 507 587 q 661 659 623 632 q 739 772 739 711 q 694 827 739 815 q 669 831 682 831 q 637 826 655 831 q 602 814 619 821 q 542 784 574 804 q 507 764 509 765 l 507 587 z "},"C":{"ha":1035,"x_min":41,"x_max":958,"o":"m 937 730 q 843 747 893 747 q 664 672 740 747 q 587 493 587 597 q 614 384 587 423 q 688 345 642 345 q 792 369 735 345 q 958 473 848 393 l 958 32 q 651 -26 814 -26 q 352 36 489 -26 q 65 348 134 136 q 42 508 42 420 q 63 675 41 595 q 126 823 85 755 q 358 1037 209 960 q 701 1114 508 1114 q 937 1080 848 1114 l 937 730 z "},"D":{"ha":1227,"x_min":83,"x_max":1177,"o":"m 83 1083 q 621 1114 495 1114 q 820 1090 747 1114 q 950 1025 892 1067 q 1119 814 1062 946 q 1177 548 1177 683 q 1133 312 1177 413 q 1012 142 1089 212 q 603 0 854 -1 l 83 0 l 83 1083 m 505 739 l 505 326 q 583 387 541 357 q 745 629 745 503 q 708 744 745 691 q 613 796 671 796 q 505 739 554 796 z "},"E":{"ha":965,"x_min":83,"x_max":888,"o":"m 83 1083 l 864 1083 l 864 771 l 505 771 l 505 682 l 863 682 l 863 416 l 505 416 l 505 314 l 888 314 l 888 0 l 83 0 l 83 1083 z "},"F":{"ha":897,"x_min":83,"x_max":863,"o":"m 83 1083 l 863 1083 l 863 777 l 505 777 l 505 676 l 863 676 l 863 380 l 505 380 l 505 0 l 83 0 l 83 1083 z "},"G":{"ha":1169,"x_min":43,"x_max":1097,"o":"m 949 515 l 1053 516 q 1097 517 1091 516 l 1097 14 q 718 -26 859 -26 q 452 14 576 -26 q 237 129 328 54 q 94 310 146 203 q 43 547 43 416 q 249 960 43 806 q 777 1114 454 1114 q 1027 1080 935 1114 q 1044 1074 1043 1074 l 1044 746 q 861 777 945 777 q 623 696 709 777 q 538 510 537 615 q 578 390 538 437 q 689 343 618 343 q 747 353 727 343 q 749 417 749 378 l 749 515 q 949 515 849 515 z "},"H":{"ha":1236,"x_min":83,"x_max":1153,"o":"m 730 1083 l 1153 1083 l 1153 0 l 730 0 l 730 400 l 505 380 l 505 0 l 83 0 l 83 1083 l 505 1083 l 505 692 l 730 710 l 730 1083 z "},"I":{"ha":587,"x_min":83,"x_max":505,"o":"m 505 0 l 83 0 l 83 1083 l 505 1083 l 505 0 z "},"J":{"ha":1071,"x_min":9,"x_max":1004,"o":"m 476 -26 q 298 -3 387 -26 q 145 71 209 21 q 9 385 9 177 l 9 488 l 386 539 l 386 435 q 442 313 386 340 q 511 315 476 296 q 543 342 529 324 q 572 439 572 380 l 572 1083 l 1004 1083 l 1004 559 q 753 27 1004 151 q 476 -26 646 -26 z "},"K":{"ha":1326,"x_min":83,"x_max":1268,"o":"m 513 1083 l 513 750 l 774 1083 l 1214 1083 l 864 627 l 1268 0 l 774 0 l 547 383 l 522 339 l 522 0 l 83 0 l 83 1083 l 513 1083 z "},"L":{"ha":890,"x_min":83,"x_max":869,"o":"m 83 1083 l 505 1083 l 505 326 l 869 326 l 869 0 l 83 0 l 83 1083 z "},"M":{"ha":1533,"x_min":83,"x_max":1450,"o":"m 83 1083 l 239 1083 l 762 591 l 1300 1083 l 1450 1083 l 1450 0 l 1004 0 l 1004 351 l 728 47 l 458 343 l 458 0 l 83 0 l 83 1083 z "},"N":{"ha":1250,"x_min":83,"x_max":1166,"o":"m 83 1083 l 193 1083 l 785 661 l 785 1083 l 1166 1083 l 1166 0 l 1021 0 l 464 372 l 464 0 l 83 0 l 83 1083 z "},"O":{"ha":1317,"x_min":50,"x_max":1265,"o":"m 839 671 q 729 786 839 786 q 623 726 682 786 q 501 511 536 636 q 490 439 490 472 q 604 326 490 326 q 708 387 650 326 q 828 604 793 476 q 839 671 839 643 m 654 -26 q 236 130 413 -26 q 138 243 180 179 q 50 545 50 378 q 132 841 50 712 q 350 1042 213 970 q 634 1114 487 1114 q 892 1074 781 1114 q 1087 961 1004 1035 q 1218 781 1171 888 q 1265 541 1265 675 q 1181 244 1265 374 q 955 44 1096 114 q 654 -26 814 -26 z "},"P":{"ha":1187,"x_min":83,"x_max":1157,"o":"m 83 1080 q 592 1114 420 1114 q 865 1088 764 1114 q 1031 1010 966 1063 q 1157 672 1157 907 q 1117 478 1157 566 q 1008 327 1077 390 q 846 229 939 264 q 647 193 753 193 l 526 196 l 526 0 l 83 0 l 83 1080 m 694 832 q 524 751 636 832 l 524 496 l 603 534 q 713 608 682 573 q 771 739 771 674 q 727 825 771 804 q 694 832 713 832 z "},"Q":{"ha":1367,"x_min":49,"x_max":1352,"o":"m 1349 277 q 1352 -22 1352 174 q 1289 -26 1320 -26 q 1000 68 1145 -26 q 650 -26 846 -26 q 357 45 495 -26 q 134 247 219 117 q 49 545 49 378 q 130 841 49 712 q 349 1042 212 970 q 650 1114 486 1114 q 1086 962 913 1114 q 1264 522 1264 806 q 1213 304 1264 414 q 1349 277 1295 277 m 789 507 q 838 680 838 604 q 779 778 838 755 q 731 786 758 786 q 676 770 703 786 q 622 726 648 753 q 528 588 568 671 q 489 439 489 505 q 603 326 489 326 q 682 363 639 326 q 632 421 656 392 q 583 479 608 450 l 657 590 q 789 507 713 552 z "},"R":{"ha":1300,"x_min":83,"x_max":1253,"o":"m 770 741 q 699 836 770 836 q 614 814 668 836 l 524 777 l 524 511 q 770 741 770 603 m 1173 729 q 958 385 1173 512 l 1253 0 l 717 0 l 526 314 l 526 0 l 83 0 l 83 1083 q 647 1114 513 1114 q 850 1097 781 1114 q 1126 909 1043 1053 q 1173 729 1172 826 z "},"S":{"ha":981,"x_min":65,"x_max":920,"o":"m 472 -26 q 68 49 168 -26 l 68 359 q 88 353 71 359 q 132 340 105 348 q 261 304 193 321 q 371 288 330 288 q 439 329 439 288 q 380 397 439 361 q 320 431 354 413 q 252 470 287 448 q 116 592 168 522 q 65 768 65 662 q 311 1081 65 1001 q 541 1114 410 1114 q 814 1084 671 1114 q 852 1075 843 1078 l 852 764 q 587 803 668 803 q 541 792 556 803 q 525 768 525 781 q 538 740 525 754 q 585 710 552 725 q 663 675 618 696 q 746 631 707 654 q 920 340 920 524 q 802 69 920 165 q 472 -26 682 -26 z "},"T":{"ha":1101,"x_min":39,"x_max":1064,"o":"m 39 1083 l 1064 1083 l 1064 732 l 762 732 l 762 0 l 340 0 l 340 732 l 39 732 l 39 1083 z "},"U":{"ha":1183,"x_min":72,"x_max":1111,"o":"m 611 -26 q 72 432 72 -26 l 72 1083 l 500 1083 l 500 444 q 564 319 500 348 q 618 309 587 309 q 729 393 706 309 q 736 447 736 418 l 736 1083 l 1111 1083 l 1111 432 q 611 -26 1111 -26 z "},"V":{"ha":1250,"x_min":17,"x_max":1232,"o":"m 509 1083 l 677 743 l 835 1083 l 1232 1083 l 700 1 q 638 -32 682 -32 q 578 1 595 -32 l 17 1083 l 509 1083 z "},"W":{"ha":1807,"x_min":43,"x_max":1761,"o":"m 529 1083 l 653 697 l 924 1060 q 944 1084 937 1078 q 964 1089 951 1089 q 999 1060 978 1089 l 1251 701 l 1373 1083 l 1761 1083 l 1407 28 q 1329 -40 1384 -40 q 1231 22 1274 -40 l 928 460 l 602 21 q 503 -37 557 -37 q 424 31 449 -37 l 43 1083 l 529 1083 z "},"X":{"ha":1304,"x_min":65,"x_max":1246,"o":"m 616 248 l 493 0 l 89 0 l 385 564 l 65 1083 l 551 1083 l 672 867 l 799 1083 l 1178 1083 l 895 574 l 1246 0 l 746 0 l 616 248 z "},"Y":{"ha":1165,"x_min":29,"x_max":1136,"o":"m 359 422 l 29 1083 l 513 1083 l 621 861 l 732 1083 l 1136 1083 l 799 422 l 799 0 l 359 0 l 359 422 z "},"Z":{"ha":1251,"x_min":74,"x_max":1171,"o":"m 489 755 l 115 755 l 115 1083 l 1171 1083 l 1171 1000 l 753 310 l 1171 310 l 1171 0 l 74 0 l 74 62 l 489 755 z "},"[":{"ha":806,"x_min":83,"x_max":724,"o":"m 83 -25 l 83 1112 l 724 1112 l 724 918 l 505 918 l 505 160 l 724 160 l 724 -25 l 83 -25 z "},"\\":{"ha":717,"x_min":33,"x_max":699,"o":"m 699 0 l 241 0 l 33 1083 l 393 1083 l 699 0 z "},"]":{"ha":806,"x_min":83,"x_max":724,"o":"m 83 -25 l 83 160 l 301 160 l 301 918 l 83 918 l 83 1112 l 724 1112 l 724 -25 l 83 -25 z "},"^":{"ha":555,"x_min":32,"x_max":524,"o":"m 182 1276 q 223 1321 196 1305 q 278 1337 251 1337 q 332 1323 305 1337 q 375 1276 359 1308 l 514 993 q 524 948 524 969 q 499 926 524 926 q 432 966 475 926 l 278 1107 l 125 966 q 57 926 82 926 q 32 950 32 926 q 43 993 32 970 l 182 1276 z "},"_":{"ha":785,"x_min":83,"x_max":703,"o":"m 83 0 l 703 0 l 703 -201 l 83 -201 l 83 0 z "},"`":{"ha":424,"x_min":22,"x_max":401,"o":"m 401 626 q 377 589 401 589 q 314 636 352 589 l 22 1001 l 298 1001 l 396 663 q 401 626 401 645 z "},"a":{"ha":1171,"x_min":57,"x_max":1090,"o":"m 176 75 q 149 100 176 75 q 89 202 121 125 q 57 368 57 279 q 75 522 57 457 q 198 740 110 652 q 292 813 240 783 q 515 875 397 875 q 722 797 633 875 q 771 739 750 772 l 868 843 l 1090 843 l 1090 0 l 868 0 l 771 140 q 434 -24 660 -24 q 301 0 372 -25 q 176 75 230 24 m 725 587 q 667 602 701 602 q 595 577 633 602 q 528 517 557 553 q 461 350 461 435 q 498 266 461 290 q 601 272 532 243 q 725 347 671 301 l 725 587 z "},"b":{"ha":1175,"x_min":83,"x_max":1124,"o":"m 727 -2 q 478 -26 636 -26 q 83 11 320 -26 l 83 1141 l 478 1141 l 478 743 q 690 848 566 826 q 750 854 724 854 q 1025 736 927 854 q 1124 446 1124 617 q 1072 255 1124 354 q 727 -2 970 62 m 673 572 q 476 484 585 572 l 476 228 l 543 228 q 676 310 611 228 q 741 479 741 393 q 705 564 741 541 q 673 572 692 572 z "},"c":{"ha":843,"x_min":50,"x_max":766,"o":"m 568 257 q 766 354 637 257 l 766 22 q 356 -1 544 -62 q 90 214 168 59 q 50 399 50 293 q 197 744 50 612 q 578 876 343 876 q 753 847 675 876 l 753 586 q 701 602 734 602 q 630 581 668 602 q 561 524 592 559 q 489 357 489 443 q 541 260 490 271 q 568 257 555 258 z "},"d":{"ha":1211,"x_min":50,"x_max":1129,"o":"m 568 873 q 734 847 649 873 l 734 1141 l 1129 1141 l 1129 0 l 878 0 l 781 140 q 454 -24 656 -24 q 171 86 292 -24 q 50 369 50 197 q 121 652 50 541 q 568 873 260 873 m 734 587 q 684 602 711 602 q 632 591 657 602 q 540 518 581 568 q 503 466 518 494 q 471 348 471 406 q 507 266 471 289 q 538 257 519 258 q 734 346 626 257 l 734 587 z "},"e":{"ha":1021,"x_min":50,"x_max":961,"o":"m 633 602 q 578 661 633 661 q 495 595 514 655 q 482 529 486 567 q 471 449 478 492 l 619 482 l 632 586 l 633 602 m 542 293 q 505 293 542 293 q 471 294 487 293 q 557 206 471 214 q 603 204 581 204 q 748 231 661 204 q 904 317 835 257 l 946 106 q 489 -25 795 -25 q 187 77 313 -25 q 50 387 50 189 q 127 655 50 536 q 322 820 199 764 q 587 876 445 876 q 866 795 772 876 q 961 596 961 715 q 847 385 960 477 q 542 293 734 293 z "},"f":{"ha":761,"x_min":46,"x_max":721,"o":"m 720 958 q 654 968 686 968 q 564 934 595 968 q 529 843 533 901 l 721 843 l 721 628 l 529 628 l 529 0 l 123 0 l 123 628 l 46 628 l 46 843 l 123 843 l 123 986 q 213 1164 123 1099 q 452 1231 302 1230 q 720 1161 601 1231 l 720 958 z "},"g":{"ha":1154,"x_min":50,"x_max":1079,"o":"m 389 -347 l 389 -107 q 464 -119 423 -111 q 544 -126 505 -126 q 615 -117 583 -126 q 674 -83 648 -109 q 730 104 730 -27 q 443 -25 612 -25 q 162 81 275 -26 q 50 387 50 189 q 113 641 50 530 q 280 813 175 751 q 505 875 386 875 q 711 797 624 875 q 760 739 739 772 l 857 843 l 1079 843 l 1079 0 q 844 -343 1080 -261 q 626 -376 749 -376 q 389 -347 504 -376 m 714 587 q 663 602 690 602 q 611 591 636 602 q 519 518 559 568 q 450 350 450 439 q 486 266 450 290 q 578 267 515 246 q 714 346 637 286 l 714 587 z "},"h":{"ha":1149,"x_min":82,"x_max":1074,"o":"m 485 753 q 762 875 576 875 q 875 850 815 875 q 979 780 935 826 q 1074 519 1074 682 l 1074 0 l 668 0 l 668 366 q 633 545 668 475 q 550 615 597 615 q 485 526 485 615 l 485 0 l 82 0 l 82 1141 l 485 1141 l 485 753 z "},"i":{"ha":557,"x_min":72,"x_max":487,"o":"m 291 1234 q 341 1234 291 1234 q 439 1192 391 1234 q 487 1086 487 1150 q 425 967 486 1021 q 261 913 363 913 q 82 1000 117 913 q 72 1054 72 1024 q 86 1116 72 1084 q 129 1175 100 1149 q 291 1234 192 1234 m 475 0 l 82 0 l 82 843 l 475 843 l 475 0 z "},"j":{"ha":689,"x_min":21,"x_max":621,"o":"m 306 -225 q 21 -127 142 -225 l 22 47 q 81 36 50 36 q 133 53 112 36 q 172 96 154 71 q 212 215 212 157 l 212 843 l 618 843 l 618 75 q 528 -144 618 -62 q 306 -225 438 -225 m 426 1234 q 475 1234 426 1234 q 573 1192 525 1234 q 621 1086 621 1150 q 559 967 621 1021 q 396 913 498 913 q 217 1000 252 913 q 207 1054 207 1024 q 221 1116 207 1084 q 263 1175 235 1149 q 426 1234 327 1234 z "},"k":{"ha":1047,"x_min":83,"x_max":1036,"o":"m 453 273 q 441 250 444 258 l 441 0 l 83 0 l 83 1141 l 435 1141 l 435 591 l 595 843 l 994 843 l 734 475 l 1036 0 l 623 0 l 453 273 z "},"l":{"ha":550,"x_min":83,"x_max":468,"o":"m 468 0 l 83 0 l 83 1141 l 468 1141 l 468 0 z "},"m":{"ha":1625,"x_min":82,"x_max":1549,"o":"m 981 728 q 1274 875 1096 875 q 1374 854 1322 875 q 1465 795 1426 834 q 1549 575 1549 711 l 1549 0 l 1156 0 l 1156 435 q 1129 566 1156 518 q 1066 614 1103 614 q 1019 567 1030 614 q 1015 536 1015 553 l 1015 0 l 631 0 l 631 435 q 602 566 631 518 q 539 614 573 614 q 485 526 485 614 l 485 0 l 82 0 l 82 843 l 304 843 l 401 711 q 543 830 451 786 q 730 875 635 875 q 936 791 854 875 q 981 728 962 764 z "},"n":{"ha":1140,"x_min":82,"x_max":1064,"o":"m 539 614 q 485 526 485 614 l 485 0 l 82 0 l 82 843 l 304 843 l 401 711 q 552 831 456 787 q 731 875 648 875 q 974 793 884 875 q 1064 575 1064 712 l 1064 0 l 659 0 l 659 407 q 539 614 659 614 z "},"o":{"ha":1076,"x_min":50,"x_max":1025,"o":"m 666 603 q 631 610 652 610 q 584 597 610 610 q 533 563 558 585 q 444 451 480 517 q 408 330 408 385 q 450 256 408 275 q 487 249 465 249 q 532 262 509 249 q 580 298 556 275 q 667 411 629 345 q 704 531 704 478 q 666 603 704 584 m 534 -25 q 200 98 340 -25 q 50 426 50 228 q 191 749 50 623 q 537 875 331 875 q 884 752 743 875 q 1025 422 1024 629 q 958 189 1025 290 q 777 31 890 87 q 534 -25 663 -24 z "},"p":{"ha":1116,"x_min":82,"x_max":1064,"o":"m 1064 534 q 936 189 1063 340 q 677 27 841 75 q 485 0 593 2 l 485 -220 l 82 -220 l 82 843 l 304 843 l 399 713 q 718 875 551 875 q 975 779 886 875 q 1064 534 1064 682 m 688 589 q 652 595 673 595 q 561 546 610 595 q 485 433 511 496 l 485 239 q 519 261 496 247 q 569 294 542 275 q 729 526 729 408 q 688 589 729 574 z "},"q":{"ha":1156,"x_min":50,"x_max":1074,"o":"m 436 846 q 689 871 533 871 q 1074 833 846 871 l 1074 -221 l 707 -221 l 707 86 q 495 -19 623 4 q 435 -25 461 -25 q 151 93 251 -25 q 50 382 50 212 q 159 686 50 552 q 436 846 250 798 m 708 587 q 658 602 685 602 q 606 591 631 602 q 557 562 581 580 q 476 465 508 524 q 445 348 445 406 q 480 266 444 289 q 511 257 493 258 q 708 346 600 257 l 708 587 z "},"r":{"ha":722,"x_min":82,"x_max":685,"o":"m 685 525 q 557 479 623 525 q 490 393 491 434 l 490 0 l 82 0 l 82 843 l 490 843 l 490 753 q 576 836 525 805 q 685 873 627 867 l 685 525 z "},"s":{"ha":815,"x_min":65,"x_max":758,"o":"m 705 590 q 486 625 555 625 q 456 616 467 625 q 446 597 446 608 q 502 552 446 574 q 604 507 557 529 q 685 454 651 486 q 758 253 758 387 q 661 47 758 119 q 399 -25 564 -25 q 134 5 233 -25 q 68 36 91 18 l 68 288 q 101 279 77 287 q 180 253 125 271 q 280 236 235 236 q 325 269 325 236 q 284 319 325 295 q 243 342 266 330 q 106 450 147 389 q 65 594 65 511 q 184 814 65 741 q 447 875 285 875 q 674 852 560 875 q 705 846 699 848 l 705 590 z "},"t":{"ha":762,"x_min":45,"x_max":720,"o":"m 720 61 q 447 -26 591 -26 q 212 55 302 -26 q 122 275 122 137 l 122 628 l 45 628 l 45 843 l 122 843 l 122 1071 l 528 1112 l 528 843 l 720 843 l 720 628 l 528 628 l 528 415 q 571 276 528 319 q 720 233 614 233 l 720 61 z "},"u":{"ha":1139,"x_min":77,"x_max":1059,"o":"m 482 450 q 590 228 482 228 q 653 281 644 228 q 656 317 656 297 l 656 843 l 1059 843 l 1059 0 l 836 0 l 739 132 q 490 -20 653 15 q 169 47 291 -63 q 77 268 77 131 l 77 843 l 482 843 l 482 450 z "},"v":{"ha":997,"x_min":17,"x_max":978,"o":"m 539 595 l 654 843 l 978 843 l 562 1 q 509 -25 550 -25 q 454 1 469 -25 l 17 843 l 414 843 l 539 595 z "},"w":{"ha":1410,"x_min":47,"x_max":1362,"o":"m 964 568 l 1054 843 l 1362 843 l 1076 -5 l 964 -5 l 721 346 l 461 -5 l 349 -5 l 47 843 l 427 843 l 518 562 l 726 843 l 770 843 l 964 568 z "},"x":{"ha":1038,"x_min":61,"x_max":986,"o":"m 529 685 l 612 843 l 925 843 l 714 444 l 986 0 l 581 0 l 485 192 l 407 0 l 68 0 l 296 437 l 61 843 l 446 843 l 529 685 z "},"y":{"ha":1120,"x_min":60,"x_max":1101,"o":"m 136 18 q 317 -1 208 -1 q 408 57 385 -1 q 415 94 415 75 q 408 134 415 113 l 60 843 l 464 843 l 610 517 l 746 843 l 1101 843 l 785 56 q 646 -172 722 -98 q 416 -261 553 -261 q 136 -222 230 -261 l 136 18 z "},"z":{"ha":1006,"x_min":74,"x_max":946,"o":"m 399 587 l 106 587 l 106 843 l 946 843 l 946 781 l 618 241 l 946 241 l 946 0 l 74 0 l 74 46 l 399 587 z "},"{":{"ha":708,"x_min":22,"x_max":627,"o":"m 129 293 q 66 410 129 377 q 22 421 47 420 l 22 644 q 100 682 71 646 q 129 789 129 718 q 157 931 129 859 q 245 1054 186 1002 q 627 1162 372 1162 l 627 904 q 524 850 549 903 q 509 770 509 819 q 464 616 509 682 q 346 532 419 551 q 463 449 418 512 q 509 316 509 385 q 522 220 509 248 q 627 161 551 161 l 627 -97 q 250 7 372 -97 q 129 293 129 111 z "},"|":{"ha":553,"x_min":65,"x_max":492,"o":"m 439 -139 l 110 -139 l 65 1222 l 492 1222 l 439 -139 z "},"}":{"ha":708,"x_min":83,"x_max":688,"o":"m 581 293 q 310 -69 581 12 q 83 -97 216 -98 l 83 161 q 186 216 160 161 q 201 296 201 247 q 246 449 201 385 q 364 532 291 513 q 246 616 291 551 q 202 751 201 682 q 189 846 202 820 q 83 904 160 904 l 83 1162 q 459 1059 338 1162 q 581 772 581 955 q 644 655 581 688 q 688 644 663 645 l 688 421 q 610 383 640 418 q 581 293 581 348 z "},"~":{"ha":745,"x_min":53,"x_max":686,"o":"m 675 1143 q 686 1132 686 1143 q 590 907 686 943 q 523 896 561 896 q 438 907 485 896 q 303 943 391 918 q 174 968 216 968 q 109 954 131 968 q 79 934 87 940 q 65 928 71 928 q 53 939 53 928 q 155 1162 53 1126 q 225 1173 186 1173 q 407 1137 280 1173 q 565 1101 534 1101 q 612 1108 597 1101 q 640 1122 628 1114 q 661 1137 652 1131 q 675 1143 669 1143 z "}," ":{"ha":347,"x_min":0,"x_max":0,"o":"z "},"¡":{"ha":525,"x_min":69,"x_max":461,"o":"m 280 734 q 235 734 280 734 q 131 793 191 734 q 71 925 71 852 q 168 1072 71 1032 q 251 1085 201 1085 q 405 1028 348 1084 q 461 900 461 971 q 416 781 461 829 q 280 734 370 734 m 461 -25 l 69 -25 l 139 627 l 392 627 l 461 -25 z "},"¢":{"ha":791,"x_min":20,"x_max":736,"o":"m 528 272 q 736 380 589 272 l 736 22 q 532 -24 630 -16 l 525 -139 l 422 -139 l 428 -21 q 137 106 255 -4 q 20 406 20 216 q 144 725 20 595 q 472 873 268 854 l 478 985 l 582 985 l 575 875 q 722 847 669 865 l 722 562 q 656 571 693 571 q 514 522 574 571 q 453 386 453 472 q 528 272 453 272 z "},"£":{"ha":1325,"x_min":40,"x_max":1261,"o":"m 924 737 q 789 818 896 818 q 684 776 727 818 q 642 656 642 734 l 975 656 l 975 440 l 624 440 q 591 301 617 368 q 743 323 694 323 q 885 310 811 323 q 1026 297 958 297 q 1193 327 1093 297 q 1236 343 1220 335 l 1261 47 q 953 -25 1116 -25 q 744 -4 870 -25 q 545 27 618 18 q 390 37 472 37 q 121 -25 242 37 l 40 89 q 197 283 153 162 q 214 378 214 328 l 214 440 l 47 440 l 47 656 l 225 656 l 228 676 q 800 1112 279 1112 q 1065 1067 955 1112 q 1240 847 1240 995 l 924 737 z "},"¤":{"ha":1099,"x_min":61,"x_max":1036,"o":"m 807 244 q 549 187 694 187 q 296 241 404 187 l 212 147 l 125 214 l 203 302 q 61 615 61 425 q 141 861 61 750 q 203 928 168 897 l 125 1018 l 212 1084 l 296 989 q 552 1043 410 1043 q 806 986 694 1043 l 893 1084 l 981 1018 l 897 925 q 1027 700 1000 834 q 1036 615 1036 658 q 1002 448 1036 529 q 899 306 968 368 l 981 214 l 893 147 l 807 244 m 549 431 q 681 481 625 431 q 736 620 736 531 q 680 756 736 708 q 548 804 624 804 q 417 756 473 804 q 361 620 361 708 q 416 481 361 531 q 549 431 472 431 z "},"¥":{"ha":1179,"x_min":36,"x_max":1143,"o":"m 121 632 l 256 632 l 36 1083 l 519 1083 l 628 861 l 739 1083 l 1143 1083 l 920 632 l 1061 632 l 1061 507 l 857 507 l 819 431 l 1061 431 l 1061 306 l 806 306 l 806 0 l 367 0 l 367 306 l 121 306 l 121 431 l 353 431 l 315 507 l 121 507 l 121 632 z "},"¦":{"ha":543,"x_min":66,"x_max":479,"o":"m 86 623 l 106 1222 l 435 1222 l 458 623 l 86 623 m 456 461 l 479 -139 l 66 -139 l 86 461 l 456 461 z "},"§":{"ha":972,"x_min":39,"x_max":930,"o":"m 382 -56 q 136 -9 229 -56 l 136 227 q 312 198 248 197 q 389 214 376 198 q 395 235 395 221 q 379 259 395 249 q 339 278 364 269 q 282 296 314 286 q 161 344 203 318 q 39 579 39 420 q 105 754 39 681 q 247 836 171 827 q 245 852 245 844 q 245 868 245 860 q 358 1077 245 1010 q 610 1132 452 1133 q 827 1108 718 1132 l 827 867 q 654 880 727 880 q 581 846 581 880 q 595 827 581 833 q 635 814 610 820 q 692 802 660 808 q 808 759 764 786 q 876 701 852 732 q 930 525 930 633 q 870 333 930 416 q 732 240 810 249 q 741 164 741 199 q 726 97 741 130 q 686 38 711 63 q 556 -33 638 -10 q 382 -56 475 -56 m 382 624 q 318 579 318 624 q 333 549 318 558 q 360 534 349 539 q 397 519 372 530 q 490 487 423 508 q 594 465 557 465 q 646 472 632 465 q 660 499 660 479 q 596 567 660 547 q 499 602 584 579 q 382 624 414 624 z "},"¨":{"ha":875,"x_min":69,"x_max":806,"o":"m 240 871 q 277 871 240 871 q 355 832 315 871 q 395 734 395 793 q 301 585 395 627 q 227 571 269 571 q 109 611 149 571 q 69 713 69 650 q 117 823 69 775 q 240 871 165 871 m 650 871 q 688 871 650 871 q 766 832 726 871 q 806 734 806 793 q 713 585 806 626 q 640 571 681 571 q 522 611 563 571 q 481 712 481 650 q 528 823 481 774 q 650 871 575 871 z "},"©":{"ha":1617,"x_min":52,"x_max":1565,"o":"m 779 533 q 852 429 779 429 q 944 458 896 429 q 1036 519 993 488 l 1036 199 q 836 158 932 158 q 530 256 648 158 q 400 549 400 363 q 527 856 400 735 q 857 977 654 977 q 1022 953 960 977 l 1022 696 q 956 707 993 707 q 831 656 884 707 q 779 533 779 605 m 1257 978 q 1070 1111 1182 1062 q 833 1160 958 1160 q 626 1137 709 1160 q 277 853 385 1072 q 211 546 211 717 q 361 114 212 283 q 626 -45 463 -1 q 833 -66 709 -66 q 1070 -18 958 -66 q 1257 114 1182 31 q 1406 545 1406 281 q 1257 978 1406 810 m 52 546 q 159 948 52 781 q 438 1199 266 1115 q 808 1283 611 1284 q 1329 1099 1113 1283 q 1535 771 1476 972 q 1565 546 1565 669 q 1458 144 1565 311 q 1178 -107 1350 -23 q 808 -192 1005 -191 q 288 -7 502 -192 q 81 321 140 120 q 52 546 52 423 z "},"ª":{"ha":924,"x_min":60,"x_max":844,"o":"m 60 751 q 60 834 60 751 q 142 1015 60 917 q 340 1112 224 1112 q 541 1037 457 1112 q 589 982 568 1013 l 667 1088 l 844 1088 l 844 412 l 667 412 l 589 525 q 422 403 532 433 q 341 393 388 393 q 241 416 294 393 q 147 486 187 439 q 60 751 60 585 m 334 685 q 334 649 334 685 q 396 612 334 612 q 522 673 458 612 q 553 708 540 690 l 553 875 q 409 816 484 875 q 334 685 334 758 z "},"«":{"ha":1089,"x_min":18,"x_max":1007,"o":"m 1007 653 l 847 541 l 1007 418 l 1007 109 l 541 482 q 514 536 514 504 q 541 590 514 568 l 1007 981 l 1007 653 m 511 653 l 351 541 l 511 418 l 511 109 l 45 482 q 18 536 18 504 q 45 590 18 568 l 511 981 l 511 653 z "},"¬":{"ha":827,"x_min":26,"x_max":745,"o":"m 26 618 l 745 618 l 745 207 l 543 207 l 543 325 l 26 325 l 26 618 z "},"­":{"ha":703,"x_min":41,"x_max":661,"o":"m 41 618 l 661 618 l 661 416 l 41 416 l 41 618 z "},"®":{"ha":1617,"x_min":52,"x_max":1565,"o":"m 1194 684 q 1044 461 1194 543 l 1251 191 l 873 191 l 753 390 l 741 390 l 741 191 l 429 191 l 429 953 l 846 953 q 1099 872 1004 952 q 1194 684 1194 792 m 845 753 q 739 710 814 753 l 739 539 l 799 572 q 836 595 817 585 q 900 692 900 631 q 845 753 900 753 m 1257 978 q 1070 1111 1182 1062 q 833 1160 958 1160 q 626 1137 709 1160 q 277 853 385 1072 q 211 546 211 717 q 361 114 212 283 q 626 -45 463 -1 q 833 -66 709 -66 q 1070 -18 958 -66 q 1257 114 1182 31 q 1406 545 1406 281 q 1257 978 1406 810 m 52 546 q 159 948 52 781 q 438 1199 266 1115 q 808 1283 611 1284 q 1329 1099 1113 1283 q 1535 771 1476 972 q 1565 546 1565 669 q 1458 144 1565 311 q 1178 -107 1350 -23 q 808 -192 1005 -191 q 288 -7 502 -192 q 81 321 140 120 q 52 546 52 423 z "},"¯":{"ha":785,"x_min":83,"x_max":703,"o":"m 83 843 l 703 843 l 703 642 l 83 642 l 83 843 z "},"°":{"ha":545,"x_min":53,"x_max":494,"o":"m 273 990 q 250 990 273 990 q 202 963 228 990 q 176 909 176 935 q 202 834 176 863 q 264 806 229 806 q 346 833 320 806 q 371 887 372 861 q 365 931 371 914 q 346 961 359 948 q 273 990 318 990 m 53 898 q 53 948 53 898 q 118 1056 53 999 q 272 1112 183 1112 q 427 1055 361 1112 q 493 897 493 998 q 428 739 494 796 q 273 682 362 682 q 119 739 184 682 q 53 898 53 796 z "},"±":{"ha":635,"x_min":40,"x_max":595,"o":"m 218 664 l 218 842 l 418 842 l 418 664 l 595 664 l 595 464 l 418 464 l 418 288 l 218 288 l 218 464 l 40 464 l 40 664 l 218 664 m 69 161 l 564 161 l 564 0 l 69 0 l 69 161 z "},"²":{"ha":958,"x_min":46,"x_max":890,"o":"m 113 157 l 441 433 q 509 550 509 489 q 488 603 509 581 q 436 624 467 624 q 374 614 404 624 q 174 475 274 581 l 46 659 q 241 829 110 768 q 523 890 373 890 q 779 817 672 890 q 885 602 885 743 q 705 328 885 461 q 615 260 658 292 l 890 260 l 890 0 l 113 0 l 113 157 z "},"³":{"ha":1029,"x_min":54,"x_max":966,"o":"m 183 325 q 493 233 320 233 q 569 255 541 233 q 596 309 596 276 q 526 392 595 366 q 431 410 477 410 q 364 408 385 410 l 357 408 l 290 522 q 296 530 290 524 q 307 539 302 537 l 439 631 l 111 631 l 111 867 l 947 867 l 947 770 l 668 557 q 966 285 966 521 q 726 4 967 68 q 440 -18 594 -31 q 54 115 198 3 l 183 325 z "},"´":{"ha":424,"x_min":22,"x_max":401,"o":"m 110 637 q 47 589 72 589 q 22 627 22 589 q 28 663 22 646 l 125 1002 l 401 1002 l 110 637 z "},"µ":{"ha":1118,"x_min":83,"x_max":1065,"o":"m 575 0 q 489 18 534 0 l 489 -158 l 83 -158 l 83 843 l 489 843 l 489 297 q 511 240 489 262 q 562 218 532 218 q 620 241 592 218 q 663 317 648 264 l 663 843 l 1065 843 l 1065 0 l 843 0 l 746 132 q 575 0 699 0 z "},"¶":{"ha":1187,"x_min":26,"x_max":1104,"o":"m 586 307 l 479 304 q 154 432 281 304 q 26 757 26 559 q 117 987 26 890 q 366 1083 208 1083 l 1104 1083 l 1104 0 l 886 0 l 886 876 l 808 876 l 808 0 l 586 0 l 586 307 z "},"·":{"ha":515,"x_min":52,"x_max":464,"o":"m 272 841 q 320 841 272 841 q 415 788 367 842 q 464 653 464 734 q 404 508 464 572 q 245 443 345 443 q 99 496 146 444 q 52 628 52 549 q 115 774 52 708 q 272 841 178 841 z "},"¸":{"ha":481,"x_min":14,"x_max":446,"o":"m 142 -222 l 205 0 l 298 0 l 257 -129 l 272 -130 q 370 -152 341 -137 q 446 -265 446 -191 q 388 -389 446 -351 q 245 -428 330 -428 q 40 -370 126 -428 q 14 -330 14 -349 q 26 -299 14 -311 q 49 -286 39 -286 q 72 -293 59 -286 q 122 -315 85 -300 q 184 -330 159 -330 q 262 -288 262 -328 q 251 -258 261 -270 q 142 -222 219 -222 z "},"¹":{"ha":646,"x_min":14,"x_max":564,"o":"m 205 467 l 14 397 l 14 660 l 464 867 l 564 867 l 564 0 l 205 0 l 205 467 z "},"º":{"ha":884,"x_min":52,"x_max":831,"o":"m 490 899 q 438 872 463 899 q 376 781 399 831 q 353 688 353 730 q 415 619 353 619 q 504 695 456 619 q 551 835 551 771 q 490 899 551 899 m 442 393 q 363 393 442 393 q 168 494 284 393 q 52 752 52 594 q 163 1011 52 910 q 441 1112 275 1112 q 720 1014 608 1112 q 831 753 831 915 q 715 492 831 591 q 442 393 600 393 z "},"»":{"ha":1090,"x_min":83,"x_max":1072,"o":"m 83 436 l 243 549 l 83 671 l 83 981 l 550 607 q 576 553 576 585 q 550 498 576 520 l 83 109 l 83 436 m 579 436 l 739 549 l 579 671 l 579 981 l 1046 607 q 1072 553 1072 585 q 1046 498 1072 520 l 579 109 l 579 436 z "},"¼":{"ha":2506,"x_min":14,"x_max":2241,"o":"m 205 683 l 14 614 l 14 876 l 464 1083 l 564 1083 l 564 216 l 205 216 l 205 683 m 874 0 l 694 0 l 1069 1083 l 1471 1083 l 874 0 m 1301 372 l 1642 868 l 2163 868 l 2163 380 l 2241 380 l 2241 117 l 2163 117 l 2163 0 l 1796 0 l 1796 117 l 1301 117 l 1301 372 m 1639 372 l 1796 372 l 1796 618 l 1639 372 z "},"½":{"ha":2506,"x_min":14,"x_max":2256,"o":"m 205 683 l 14 614 l 14 876 l 464 1083 l 564 1083 l 564 216 l 205 216 l 205 683 m 833 0 l 654 0 l 1029 1083 l 1430 1083 l 833 0 m 1478 157 l 1807 433 q 1874 550 1874 489 q 1853 603 1874 581 q 1801 624 1832 624 q 1739 614 1769 624 q 1539 475 1639 581 l 1411 659 q 1607 829 1475 768 q 1888 890 1738 890 q 2144 817 2037 890 q 2250 602 2250 743 q 2070 328 2250 461 q 1980 260 2023 292 l 2256 260 l 2256 0 l 1478 0 l 1478 157 z "},"¾":{"ha":2506,"x_min":-205,"x_max":2241,"o":"m -76 541 q 234 450 61 450 q 310 471 282 450 q 337 525 337 492 q 267 608 336 583 q 172 627 218 627 q 105 625 125 627 l 98 625 l 31 739 q 37 747 31 740 q 48 755 43 753 l 180 847 l -148 847 l -148 1083 l 688 1083 l 688 986 l 409 773 q 707 501 707 737 q 467 220 708 284 q 181 199 335 185 q -205 332 -61 220 l -76 541 m 874 0 l 694 0 l 1069 1083 l 1471 1083 l 874 0 m 1301 372 l 1642 868 l 2163 868 l 2163 380 l 2241 380 l 2241 117 l 2163 117 l 2163 0 l 1796 0 l 1796 117 l 1301 117 l 1301 372 m 1639 372 l 1796 372 l 1796 618 l 1639 372 z "},"¿":{"ha":848,"x_min":122,"x_max":827,"o":"m 826 13 q 561 -23 699 -23 q 140 167 217 -23 q 122 265 122 210 q 199 476 122 405 q 276 536 229 503 q 347 590 324 568 q 423 713 402 641 l 671 713 q 691 601 691 652 q 677 519 691 551 q 642 464 663 487 q 596 426 621 442 q 550 396 572 410 q 515 368 529 382 q 501 335 501 354 q 610 256 501 256 q 791 292 686 256 q 826 305 815 300 l 826 13 m 528 763 q 447 776 480 763 q 392 812 414 789 q 349 928 349 857 q 405 1056 349 1000 q 555 1113 461 1112 q 694 1066 650 1113 q 738 950 738 1020 q 678 822 739 880 q 528 763 618 763 z "},"À":{"ha":1454,"x_min":22,"x_max":1423,"o":"m 22 0 l 561 1028 q 663 1101 589 1083 q 717 1107 685 1107 q 786 1089 749 1107 q 846 1032 824 1071 l 1423 0 l 873 0 l 831 107 l 538 107 l 501 0 l 22 0 m 571 322 l 790 322 l 686 615 l 571 322 m 758 1219 q 733 1181 758 1181 q 671 1229 709 1181 l 379 1594 l 655 1594 l 753 1255 q 758 1219 758 1238 z "},"Á":{"ha":1454,"x_min":22,"x_max":1423,"o":"m 22 0 l 561 1028 q 663 1101 589 1083 q 717 1107 685 1107 q 786 1089 749 1107 q 846 1032 824 1071 l 1423 0 l 873 0 l 831 107 l 538 107 l 501 0 l 22 0 m 571 322 l 790 322 l 686 615 l 571 322 m 796 1230 q 733 1182 758 1182 q 709 1219 709 1182 q 714 1256 709 1238 l 811 1594 l 1088 1594 l 796 1230 z "},"Â":{"ha":1454,"x_min":22,"x_max":1423,"o":"m 22 0 l 561 1028 q 663 1101 589 1083 q 717 1107 685 1107 q 786 1089 749 1107 q 846 1032 824 1071 l 1423 0 l 873 0 l 831 107 l 538 107 l 501 0 l 22 0 m 571 322 l 790 322 l 686 615 l 571 322 m 637 1556 q 679 1602 652 1586 q 735 1617 707 1617 q 831 1556 801 1617 l 970 1274 q 979 1231 979 1255 q 960 1206 979 1206 q 888 1247 931 1206 l 734 1387 l 581 1247 q 512 1206 536 1206 q 488 1230 488 1206 q 498 1274 488 1249 l 637 1556 z "},"Ã":{"ha":1454,"x_min":22,"x_max":1423,"o":"m 22 0 l 561 1028 q 663 1101 589 1083 q 717 1107 685 1107 q 786 1089 749 1107 q 846 1032 824 1071 l 1423 0 l 873 0 l 831 107 l 538 107 l 501 0 l 22 0 m 571 322 l 790 322 l 686 615 l 571 322 m 1046 1438 q 1057 1428 1057 1438 q 961 1202 1057 1238 q 894 1192 932 1192 q 809 1203 856 1192 q 674 1239 762 1214 q 544 1263 587 1263 q 479 1250 500 1263 q 450 1230 458 1236 q 436 1223 441 1223 q 423 1234 423 1223 q 524 1457 422 1423 q 595 1468 555 1468 q 778 1432 653 1468 q 935 1397 902 1397 q 983 1403 968 1397 q 1010 1418 998 1410 q 1031 1432 1023 1426 q 1046 1438 1040 1438 z "},"Ä":{"ha":1454,"x_min":22,"x_max":1423,"o":"m 22 0 l 561 1028 q 663 1101 589 1083 q 717 1107 685 1107 q 786 1089 749 1107 q 846 1032 824 1071 l 1423 0 l 873 0 l 831 107 l 538 107 l 501 0 l 22 0 m 571 322 l 790 322 l 686 615 l 571 322 m 534 1463 q 572 1463 534 1463 q 649 1425 609 1463 q 689 1327 689 1386 q 595 1178 689 1219 q 521 1164 563 1164 q 403 1203 443 1164 q 363 1305 363 1243 q 411 1416 363 1368 q 534 1463 459 1463 m 945 1463 q 982 1463 945 1463 q 1060 1425 1020 1463 q 1100 1327 1100 1386 q 1008 1178 1100 1219 q 934 1164 975 1164 q 816 1203 857 1164 q 775 1305 775 1243 q 823 1415 776 1367 q 945 1463 869 1463 z "},"Å":{"ha":1454,"x_min":22,"x_max":1423,"o":"m 22 0 l 561 1028 q 663 1101 589 1083 q 717 1107 685 1107 q 786 1089 749 1107 q 846 1032 824 1071 l 1423 0 l 873 0 l 831 107 l 538 107 l 501 0 l 22 0 m 571 322 l 790 322 l 686 615 l 571 322 m 701 1493 q 611 1435 633 1492 q 605 1402 605 1419 q 631 1337 605 1365 q 692 1308 658 1308 q 774 1336 748 1308 q 800 1390 800 1363 q 773 1465 800 1436 q 701 1493 747 1493 m 481 1400 q 481 1451 481 1400 q 546 1558 481 1501 q 700 1615 611 1614 q 856 1558 789 1615 q 922 1400 922 1501 q 856 1241 922 1299 q 701 1184 791 1184 q 546 1242 611 1184 q 481 1400 481 1299 z "},"Æ":{"ha":1654,"x_min":16,"x_max":1614,"o":"m 755 1083 l 1593 1083 l 1593 783 l 1238 783 l 1238 679 l 1593 679 l 1593 419 l 1238 419 l 1238 301 l 1614 301 l 1614 0 l 782 0 l 782 83 l 505 83 l 457 0 l 16 0 l 755 1083 m 782 624 l 631 335 l 782 335 l 782 624 z "},"Ç":{"ha":1035,"x_min":41,"x_max":958,"o":"m 937 730 q 843 747 893 747 q 664 672 740 747 q 587 493 587 597 q 614 384 587 423 q 688 345 642 345 q 792 369 735 345 q 958 473 848 393 l 958 32 q 651 -26 814 -26 q 352 36 489 -26 q 65 348 134 136 q 42 508 42 420 q 63 675 41 595 q 126 823 85 755 q 358 1037 209 960 q 701 1114 508 1114 q 937 1080 848 1114 l 937 730 m 524 -222 l 587 0 l 680 0 l 639 -129 l 654 -130 q 752 -152 723 -137 q 828 -265 828 -191 q 769 -389 827 -351 q 627 -428 711 -428 q 422 -370 508 -428 q 395 -330 395 -349 q 408 -299 395 -311 q 431 -286 420 -286 q 454 -293 441 -286 q 504 -315 467 -300 q 566 -330 541 -330 q 644 -288 644 -328 q 633 -258 643 -270 q 524 -222 601 -222 z "},"È":{"ha":965,"x_min":83,"x_max":888,"o":"m 83 1083 l 864 1083 l 864 771 l 505 771 l 505 682 l 863 682 l 863 416 l 505 416 l 505 314 l 888 314 l 888 0 l 83 0 l 83 1083 m 503 1219 q 478 1181 503 1181 q 416 1229 454 1181 l 124 1594 l 400 1594 l 498 1255 q 503 1219 503 1238 z "},"É":{"ha":965,"x_min":83,"x_max":888,"o":"m 83 1083 l 864 1083 l 864 771 l 505 771 l 505 682 l 863 682 l 863 416 l 505 416 l 505 314 l 888 314 l 888 0 l 83 0 l 83 1083 m 541 1230 q 478 1182 503 1182 q 453 1219 453 1182 q 458 1256 453 1238 l 555 1594 l 832 1594 l 541 1230 z "},"Ê":{"ha":965,"x_min":83,"x_max":888,"o":"m 83 1083 l 864 1083 l 864 771 l 505 771 l 505 682 l 863 682 l 863 416 l 505 416 l 505 314 l 888 314 l 888 0 l 83 0 l 83 1083 m 382 1556 q 424 1602 396 1586 q 479 1617 451 1617 q 575 1556 545 1617 l 714 1274 q 724 1231 724 1255 q 704 1206 724 1206 q 632 1247 675 1206 l 478 1387 l 325 1247 q 256 1206 280 1206 q 232 1230 232 1206 q 243 1274 232 1249 l 382 1556 z "},"Ë":{"ha":965,"x_min":83,"x_max":888,"o":"m 83 1083 l 864 1083 l 864 771 l 505 771 l 505 682 l 863 682 l 863 416 l 505 416 l 505 314 l 888 314 l 888 0 l 83 0 l 83 1083 m 278 1463 q 316 1463 278 1463 q 393 1425 353 1463 q 433 1327 433 1386 q 340 1178 433 1219 q 265 1164 307 1164 q 148 1203 187 1164 q 108 1305 108 1243 q 156 1416 108 1368 q 278 1463 203 1463 m 689 1463 q 727 1463 689 1463 q 804 1425 764 1463 q 844 1327 844 1386 q 752 1178 844 1219 q 678 1164 720 1164 q 561 1203 602 1164 q 520 1305 519 1243 q 567 1415 520 1367 q 689 1463 614 1463 z "},"Ì":{"ha":587,"x_min":-54,"x_max":505,"o":"m 505 0 l 83 0 l 83 1083 l 505 1083 l 505 0 m 326 1219 q 301 1181 326 1181 q 238 1229 276 1181 l -54 1594 l 222 1594 l 320 1255 q 326 1219 326 1238 z "},"Í":{"ha":587,"x_min":83,"x_max":654,"o":"m 505 0 l 83 0 l 83 1083 l 505 1083 l 505 0 m 363 1230 q 300 1182 325 1182 q 275 1219 275 1182 q 281 1256 275 1238 l 378 1594 l 654 1594 l 363 1230 z "},"Î":{"ha":587,"x_min":54,"x_max":546,"o":"m 505 0 l 83 0 l 83 1083 l 505 1083 l 505 0 m 204 1556 q 246 1602 218 1586 q 302 1617 273 1617 q 397 1556 368 1617 l 536 1274 q 546 1231 546 1255 q 526 1206 546 1206 q 454 1247 498 1206 l 300 1387 l 147 1247 q 78 1206 102 1206 q 54 1230 54 1206 q 65 1274 54 1249 l 204 1556 z "},"Ï":{"ha":587,"x_min":-69,"x_max":667,"o":"m 505 0 l 83 0 l 83 1083 l 505 1083 l 505 0 m 101 1463 q 139 1463 101 1463 q 216 1425 176 1463 q 256 1327 256 1386 q 163 1178 256 1219 q 88 1164 130 1164 q -30 1203 10 1164 q -69 1305 -69 1243 q -21 1416 -69 1368 q 101 1463 26 1463 m 512 1463 q 550 1463 512 1463 q 627 1425 587 1463 q 667 1327 667 1386 q 575 1178 667 1219 q 501 1164 543 1164 q 384 1203 425 1164 q 343 1305 342 1243 q 390 1415 343 1367 q 512 1463 437 1463 z "},"Ð":{"ha":1229,"x_min":33,"x_max":1177,"o":"m 83 1083 q 621 1114 495 1114 q 820 1090 747 1114 q 950 1025 892 1067 q 1119 814 1062 946 q 1177 548 1177 683 q 1133 312 1177 413 q 1012 142 1089 212 q 603 0 854 -1 l 83 0 l 83 507 l 33 507 l 33 667 l 83 667 l 83 1083 m 505 739 l 505 667 l 625 667 l 625 507 l 505 507 l 505 326 q 583 387 541 357 q 745 629 745 503 q 708 744 745 691 q 613 796 671 796 q 505 739 554 796 z "},"Ñ":{"ha":1250,"x_min":83,"x_max":1166,"o":"m 83 1083 l 193 1083 l 785 661 l 785 1083 l 1166 1083 l 1166 0 l 1021 0 l 464 372 l 464 0 l 83 0 l 83 1083 m 964 1438 q 975 1428 975 1438 q 879 1202 975 1238 q 812 1192 850 1192 q 727 1203 774 1192 q 592 1239 680 1214 q 462 1263 505 1263 q 397 1250 418 1263 q 368 1230 376 1236 q 354 1223 359 1223 q 341 1234 341 1223 q 442 1457 340 1423 q 513 1468 473 1468 q 695 1432 571 1468 q 853 1397 820 1397 q 901 1403 886 1397 q 928 1418 916 1410 q 949 1432 941 1426 q 964 1438 958 1438 z "},"Ò":{"ha":1317,"x_min":50,"x_max":1265,"o":"m 839 671 q 729 786 839 786 q 623 726 682 786 q 501 511 536 636 q 490 439 490 472 q 604 326 490 326 q 708 387 650 326 q 828 604 793 476 q 839 671 839 643 m 654 -26 q 236 130 413 -26 q 138 243 180 179 q 50 545 50 378 q 132 841 50 712 q 350 1042 213 970 q 634 1114 487 1114 q 892 1074 781 1114 q 1087 961 1004 1035 q 1218 781 1171 888 q 1265 541 1265 675 q 1181 244 1265 374 q 955 44 1096 114 q 654 -26 814 -26 m 677 1219 q 652 1181 677 1181 q 589 1229 627 1181 l 298 1594 l 574 1594 l 671 1255 q 677 1219 677 1238 z "},"Ó":{"ha":1317,"x_min":50,"x_max":1265,"o":"m 839 671 q 729 786 839 786 q 623 726 682 786 q 501 511 536 636 q 490 439 490 472 q 604 326 490 326 q 708 387 650 326 q 828 604 793 476 q 839 671 839 643 m 654 -26 q 236 130 413 -26 q 138 243 180 179 q 50 545 50 378 q 132 841 50 712 q 350 1042 213 970 q 634 1114 487 1114 q 892 1074 781 1114 q 1087 961 1004 1035 q 1218 781 1171 888 q 1265 541 1265 675 q 1181 244 1265 374 q 955 44 1096 114 q 654 -26 814 -26 m 714 1230 q 651 1182 676 1182 q 627 1219 627 1182 q 632 1256 627 1238 l 729 1594 l 1006 1594 l 714 1230 z "},"Ô":{"ha":1317,"x_min":50,"x_max":1265,"o":"m 839 671 q 729 786 839 786 q 623 726 682 786 q 501 511 536 636 q 490 439 490 472 q 604 326 490 326 q 708 387 650 326 q 828 604 793 476 q 839 671 839 643 m 654 -26 q 236 130 413 -26 q 138 243 180 179 q 50 545 50 378 q 132 841 50 712 q 350 1042 213 970 q 634 1114 487 1114 q 892 1074 781 1114 q 1087 961 1004 1035 q 1218 781 1171 888 q 1265 541 1265 675 q 1181 244 1265 374 q 955 44 1096 114 q 654 -26 814 -26 m 555 1556 q 597 1602 570 1586 q 653 1617 625 1617 q 749 1556 719 1617 l 888 1274 q 897 1231 897 1255 q 878 1206 897 1206 q 806 1247 849 1206 l 652 1387 l 498 1247 q 430 1206 454 1206 q 406 1230 406 1206 q 416 1274 406 1249 l 555 1556 z "},"Õ":{"ha":1317,"x_min":50,"x_max":1265,"o":"m 839 671 q 729 786 839 786 q 623 726 682 786 q 501 511 536 636 q 490 439 490 472 q 604 326 490 326 q 708 387 650 326 q 828 604 793 476 q 839 671 839 643 m 654 -26 q 236 130 413 -26 q 138 243 180 179 q 50 545 50 378 q 132 841 50 712 q 350 1042 213 970 q 634 1114 487 1114 q 892 1074 781 1114 q 1087 961 1004 1035 q 1218 781 1171 888 q 1265 541 1265 675 q 1181 244 1265 374 q 955 44 1096 114 q 654 -26 814 -26 m 964 1438 q 975 1428 975 1438 q 879 1202 975 1238 q 812 1192 850 1192 q 727 1203 774 1192 q 592 1239 680 1214 q 462 1263 505 1263 q 397 1250 418 1263 q 368 1230 376 1236 q 354 1223 359 1223 q 341 1234 341 1223 q 442 1457 340 1423 q 513 1468 473 1468 q 695 1432 571 1468 q 853 1397 820 1397 q 901 1403 886 1397 q 928 1418 916 1410 q 949 1432 941 1426 q 964 1438 958 1438 z "},"Ö":{"ha":1317,"x_min":50,"x_max":1265,"o":"m 839 671 q 729 786 839 786 q 623 726 682 786 q 501 511 536 636 q 490 439 490 472 q 604 326 490 326 q 708 387 650 326 q 828 604 793 476 q 839 671 839 643 m 654 -26 q 236 130 413 -26 q 138 243 180 179 q 50 545 50 378 q 132 841 50 712 q 350 1042 213 970 q 634 1114 487 1114 q 892 1074 781 1114 q 1087 961 1004 1035 q 1218 781 1171 888 q 1265 541 1265 675 q 1181 244 1265 374 q 955 44 1096 114 q 654 -26 814 -26 m 452 1463 q 489 1463 452 1463 q 567 1425 527 1463 q 607 1327 607 1386 q 513 1178 607 1219 q 439 1164 481 1164 q 321 1203 361 1164 q 281 1305 281 1243 q 329 1416 281 1368 q 452 1463 377 1463 m 863 1463 q 900 1463 863 1463 q 978 1425 938 1463 q 1018 1327 1018 1386 q 926 1178 1018 1219 q 852 1164 893 1164 q 734 1203 775 1164 q 693 1305 693 1243 q 741 1415 694 1367 q 863 1463 787 1463 z "},"×":{"ha":794,"x_min":45,"x_max":751,"o":"m 221 441 l 45 618 l 221 794 l 399 618 l 574 794 l 751 616 l 575 441 l 751 265 l 574 89 l 399 264 l 221 87 l 45 264 l 221 441 z "},"Ø":{"ha":1260,"x_min":43,"x_max":1258,"o":"m 647 1114 q 814 1095 732 1114 l 856 1223 l 953 1196 l 911 1065 q 1165 866 1072 1002 q 1258 541 1259 730 q 1073 127 1257 288 q 803 -8 960 28 q 517 -12 654 -42 l 471 -153 l 374 -125 l 418 14 q 146 219 251 79 q 43 535 42 359 q 124 841 43 712 q 342 1042 205 970 q 647 1114 480 1114 m 832 671 q 722 786 832 786 q 616 726 675 786 q 494 511 529 636 q 484 439 484 472 q 597 326 484 326 q 701 387 643 326 q 821 604 786 476 q 832 671 832 643 z "},"Ù":{"ha":1183,"x_min":72,"x_max":1111,"o":"m 611 -26 q 72 432 72 -26 l 72 1083 l 500 1083 l 500 444 q 564 319 500 348 q 618 309 587 309 q 729 393 706 309 q 736 447 736 418 l 736 1083 l 1111 1083 l 1111 432 q 611 -26 1111 -26 m 643 1219 q 618 1181 643 1181 q 555 1229 593 1181 l 264 1594 l 540 1594 l 637 1255 q 643 1219 643 1238 z "},"Ú":{"ha":1183,"x_min":72,"x_max":1111,"o":"m 611 -26 q 72 432 72 -26 l 72 1083 l 500 1083 l 500 444 q 564 319 500 348 q 618 309 587 309 q 729 393 706 309 q 736 447 736 418 l 736 1083 l 1111 1083 l 1111 432 q 611 -26 1111 -26 m 681 1230 q 618 1182 643 1182 q 593 1219 593 1182 q 599 1256 593 1238 l 696 1594 l 972 1594 l 681 1230 z "},"Û":{"ha":1183,"x_min":72,"x_max":1111,"o":"m 611 -26 q 72 432 72 -26 l 72 1083 l 500 1083 l 500 444 q 564 319 500 348 q 618 309 587 309 q 729 393 706 309 q 736 447 736 418 l 736 1083 l 1111 1083 l 1111 432 q 611 -26 1111 -26 m 522 1556 q 564 1602 536 1586 q 620 1617 591 1617 q 715 1556 686 1617 l 854 1274 q 864 1231 864 1255 q 844 1206 864 1206 q 772 1247 816 1206 l 618 1387 l 465 1247 q 396 1206 420 1206 q 372 1230 372 1206 q 383 1274 372 1249 l 522 1556 z "},"Ü":{"ha":1183,"x_min":72,"x_max":1111,"o":"m 611 -26 q 72 432 72 -26 l 72 1083 l 500 1083 l 500 444 q 564 319 500 348 q 618 309 587 309 q 729 393 706 309 q 736 447 736 418 l 736 1083 l 1111 1083 l 1111 432 q 611 -26 1111 -26 m 419 1463 q 456 1463 419 1463 q 534 1425 494 1463 q 574 1327 574 1386 q 480 1178 574 1219 q 406 1164 448 1164 q 288 1203 328 1164 q 248 1305 248 1243 q 296 1416 248 1368 q 419 1463 344 1463 m 829 1463 q 867 1463 829 1463 q 945 1425 905 1463 q 985 1327 985 1386 q 892 1178 985 1219 q 819 1164 860 1164 q 701 1203 742 1164 q 660 1305 660 1243 q 707 1415 661 1367 q 829 1463 754 1463 z "},"Ý":{"ha":1165,"x_min":29,"x_max":1136,"o":"m 359 422 l 29 1083 l 513 1083 l 621 861 l 732 1083 l 1136 1083 l 799 422 l 799 0 l 359 0 l 359 422 m 684 1230 q 621 1182 646 1182 q 596 1219 596 1182 q 602 1256 596 1238 l 699 1594 l 975 1594 l 684 1230 z "},"Þ":{"ha":1126,"x_min":41,"x_max":1104,"o":"m 485 996 q 736 1042 631 1042 q 1021 937 925 1042 q 1104 692 1104 846 q 944 295 1104 443 q 485 140 783 147 l 485 0 l 41 0 l 41 1084 l 485 1084 l 485 996 m 643 757 q 482 682 589 757 l 482 440 l 557 476 q 661 546 631 511 q 715 677 715 610 q 696 734 715 711 q 643 757 677 757 z "},"ß":{"ha":1225,"x_min":37,"x_max":1194,"o":"m 554 644 q 661 778 661 701 q 643 821 661 806 q 604 836 625 836 q 514 803 567 836 q 461 754 461 769 l 461 -37 l 37 -37 l 37 671 q 234 988 37 881 q 661 1082 406 1082 q 982 1013 852 1082 q 1112 827 1112 945 q 1020 670 1112 727 q 954 635 990 652 q 1065 591 1034 609 q 1161 495 1129 555 q 1194 340 1194 435 q 1165 184 1194 245 q 1088 83 1137 124 q 574 -40 945 -40 l 566 -40 q 554 -39 559 -40 l 554 253 q 610 284 581 269 q 714 441 714 341 q 652 514 714 514 q 598 504 631 514 q 554 492 565 494 l 554 644 z "},"à":{"ha":1169,"x_min":57,"x_max":1090,"o":"m 176 75 q 149 100 176 75 q 89 202 121 125 q 57 368 57 279 q 75 522 57 457 q 198 740 110 652 q 292 813 240 783 q 515 875 397 875 q 722 797 633 875 q 771 739 750 772 l 868 843 l 1090 843 l 1090 0 l 868 0 l 771 140 q 434 -24 660 -24 q 301 0 372 -25 q 176 75 230 24 m 725 587 q 667 602 701 602 q 595 577 633 602 q 528 517 557 553 q 461 350 461 435 q 498 266 461 290 q 601 272 532 243 q 725 347 671 301 l 725 587 m 627 1008 q 602 970 627 970 q 539 1018 577 970 l 248 1383 l 524 1383 l 621 1044 q 627 1008 627 1027 z "},"á":{"ha":1169,"x_min":57,"x_max":1090,"o":"m 176 75 q 149 100 176 75 q 89 202 121 125 q 57 368 57 279 q 75 522 57 457 q 198 740 110 652 q 292 813 240 783 q 515 875 397 875 q 722 797 633 875 q 771 739 750 772 l 868 843 l 1090 843 l 1090 0 l 868 0 l 771 140 q 434 -24 660 -24 q 301 0 372 -25 q 176 75 230 24 m 725 587 q 667 602 701 602 q 595 577 633 602 q 528 517 557 553 q 461 350 461 435 q 498 266 461 290 q 601 272 532 243 q 725 347 671 301 l 725 587 m 664 1019 q 601 971 626 971 q 576 1008 576 971 q 582 1045 576 1027 l 679 1383 l 956 1383 l 664 1019 z "},"â":{"ha":1169,"x_min":57,"x_max":1090,"o":"m 176 75 q 149 100 176 75 q 89 202 121 125 q 57 368 57 279 q 75 522 57 457 q 198 740 110 652 q 292 813 240 783 q 515 875 397 875 q 722 797 633 875 q 771 739 750 772 l 868 843 l 1090 843 l 1090 0 l 868 0 l 771 140 q 434 -24 660 -24 q 301 0 372 -25 q 176 75 230 24 m 725 587 q 667 602 701 602 q 595 577 633 602 q 528 517 557 553 q 461 350 461 435 q 498 266 461 290 q 601 272 532 243 q 725 347 671 301 l 725 587 m 505 1345 q 547 1391 519 1375 q 603 1407 574 1407 q 699 1345 669 1407 l 838 1063 q 847 1020 847 1044 q 827 996 847 996 q 755 1036 799 996 l 602 1176 l 448 1036 q 379 996 404 996 q 355 1019 355 996 q 366 1063 355 1038 l 505 1345 z "},"ã":{"ha":1169,"x_min":57,"x_max":1090,"o":"m 176 75 q 149 100 176 75 q 89 202 121 125 q 57 368 57 279 q 75 522 57 457 q 198 740 110 652 q 292 813 240 783 q 515 875 397 875 q 722 797 633 875 q 771 739 750 772 l 868 843 l 1090 843 l 1090 0 l 868 0 l 771 140 q 434 -24 660 -24 q 301 0 372 -25 q 176 75 230 24 m 725 587 q 667 602 701 602 q 595 577 633 602 q 528 517 557 553 q 461 350 461 435 q 498 266 461 290 q 601 272 532 243 q 725 347 671 301 l 725 587 m 932 1227 q 943 1217 943 1227 q 848 991 943 1027 q 781 981 819 981 q 695 992 743 981 q 561 1028 648 1003 q 431 1053 474 1053 q 366 1039 387 1053 q 336 1019 345 1025 q 323 1013 328 1013 q 310 1023 310 1013 q 411 1246 309 1212 q 481 1257 442 1257 q 664 1221 540 1257 q 822 1186 789 1186 q 870 1193 854 1186 q 897 1207 885 1199 q 918 1221 909 1215 q 932 1227 926 1227 z "},"ä":{"ha":1169,"x_min":57,"x_max":1090,"o":"m 176 75 q 149 100 176 75 q 89 202 121 125 q 57 368 57 279 q 75 522 57 457 q 198 740 110 652 q 292 813 240 783 q 515 875 397 875 q 722 797 633 875 q 771 739 750 772 l 868 843 l 1090 843 l 1090 0 l 868 0 l 771 140 q 434 -24 660 -24 q 301 0 372 -25 q 176 75 230 24 m 725 587 q 667 602 701 602 q 595 577 633 602 q 528 517 557 553 q 461 350 461 435 q 498 266 461 290 q 601 272 532 243 q 725 347 671 301 l 725 587 m 402 1253 q 440 1253 402 1253 q 517 1214 477 1253 q 557 1116 557 1175 q 464 967 557 1008 q 389 953 431 953 q 272 992 311 953 q 232 1095 232 1032 q 280 1205 232 1157 q 402 1253 328 1253 m 813 1253 q 851 1253 813 1253 q 928 1214 888 1253 q 968 1116 968 1175 q 876 967 968 1008 q 802 953 844 953 q 685 992 726 953 q 644 1094 644 1032 q 691 1204 644 1156 q 813 1253 738 1253 z "},"å":{"ha":1169,"x_min":57,"x_max":1090,"o":"m 176 75 q 149 100 176 75 q 89 202 121 125 q 57 368 57 279 q 75 522 57 457 q 198 740 110 652 q 292 813 240 783 q 515 875 397 875 q 722 797 633 875 q 771 739 750 772 l 868 843 l 1090 843 l 1090 0 l 868 0 l 771 140 q 434 -24 660 -24 q 301 0 372 -25 q 176 75 230 24 m 725 587 q 667 602 701 602 q 595 577 633 602 q 528 517 557 553 q 461 350 461 435 q 498 266 461 290 q 601 272 532 243 q 725 347 671 301 l 725 587 m 599 1282 q 509 1224 530 1281 q 503 1191 503 1208 q 529 1126 503 1154 q 590 1097 555 1097 q 671 1125 646 1097 q 697 1179 697 1152 q 671 1254 697 1225 q 599 1282 644 1282 m 379 1190 q 379 1240 379 1190 q 444 1347 379 1291 q 598 1404 509 1403 q 753 1348 687 1404 q 819 1189 819 1291 q 754 1030 819 1088 q 598 973 688 973 q 444 1031 509 973 q 379 1190 378 1088 z "},"æ":{"ha":1674,"x_min":50,"x_max":1604,"o":"m 873 764 q 1217 876 1019 876 q 1509 795 1415 876 q 1604 596 1604 715 q 1490 385 1603 477 q 1185 293 1377 293 l 1149 293 q 1114 294 1130 293 q 1200 206 1114 214 q 1246 204 1223 204 q 1391 231 1303 204 q 1547 317 1478 257 l 1589 106 q 1132 -25 1438 -25 q 857 56 977 -25 q 786 119 818 83 q 439 -25 602 -25 q 163 80 276 -26 q 50 383 50 185 q 125 642 50 525 q 435 859 231 807 q 541 875 500 875 q 607 872 583 875 q 659 863 631 869 q 873 764 811 832 m 690 587 q 632 602 666 602 q 561 577 598 602 q 493 517 523 553 q 427 350 427 435 q 463 266 426 290 q 566 272 496 243 q 690 347 636 301 l 690 587 m 1276 602 q 1221 661 1276 661 q 1138 595 1157 655 q 1125 529 1128 567 q 1114 449 1121 492 l 1263 482 l 1275 586 l 1276 602 z "},"ç":{"ha":843,"x_min":26,"x_max":742,"o":"m 544 257 q 742 354 612 257 l 742 22 q 332 -1 519 -62 q 65 214 144 59 q 26 399 26 293 q 172 744 26 612 q 553 876 319 876 q 728 847 650 876 l 728 586 q 677 602 710 602 q 606 581 644 602 q 536 524 568 559 q 465 357 465 443 q 517 260 465 271 q 544 257 530 258 m 417 -222 l 481 0 l 574 0 l 532 -129 l 547 -130 q 646 -152 616 -137 q 722 -265 722 -191 q 663 -389 721 -351 q 521 -428 605 -428 q 315 -370 401 -428 q 289 -330 289 -349 q 301 -299 289 -311 q 324 -286 314 -286 q 348 -293 334 -286 q 397 -315 361 -300 q 460 -330 434 -330 q 537 -288 538 -328 q 526 -258 536 -270 q 417 -222 494 -222 z "},"è":{"ha":1021,"x_min":50,"x_max":961,"o":"m 633 602 q 578 661 633 661 q 495 595 514 655 q 482 529 486 567 q 471 449 478 492 l 619 482 l 632 586 l 633 602 m 542 293 q 505 293 542 293 q 471 294 487 293 q 557 206 471 214 q 603 204 581 204 q 748 231 661 204 q 904 317 835 257 l 946 106 q 489 -25 795 -25 q 187 77 313 -25 q 50 387 50 189 q 127 655 50 536 q 322 820 199 764 q 587 876 445 876 q 866 795 772 876 q 961 596 961 715 q 847 385 960 477 q 542 293 734 293 m 575 1006 q 550 969 575 969 q 488 1017 526 969 l 196 1381 l 472 1381 l 570 1043 q 575 1006 575 1025 z "},"é":{"ha":1021,"x_min":50,"x_max":961,"o":"m 633 602 q 578 661 633 661 q 495 595 514 655 q 482 529 486 567 q 471 449 478 492 l 619 482 l 632 586 l 633 602 m 542 293 q 505 293 542 293 q 471 294 487 293 q 557 206 471 214 q 603 204 581 204 q 748 231 661 204 q 904 317 835 257 l 946 106 q 489 -25 795 -25 q 187 77 313 -25 q 50 387 50 189 q 127 655 50 536 q 322 820 199 764 q 587 876 445 876 q 866 795 772 876 q 961 596 961 715 q 847 385 960 477 q 542 293 734 293 m 612 1017 q 550 970 574 970 q 525 1007 525 970 q 530 1044 525 1026 l 627 1382 l 904 1382 l 612 1017 z "},"ê":{"ha":1021,"x_min":50,"x_max":961,"o":"m 633 602 q 578 661 633 661 q 495 595 514 655 q 482 529 486 567 q 471 449 478 492 l 619 482 l 632 586 l 633 602 m 542 293 q 505 293 542 293 q 471 294 487 293 q 557 206 471 214 q 603 204 581 204 q 748 231 661 204 q 904 317 835 257 l 946 106 q 489 -25 795 -25 q 187 77 313 -25 q 50 387 50 189 q 127 655 50 536 q 322 820 199 764 q 587 876 445 876 q 866 795 772 876 q 961 596 961 715 q 847 385 960 477 q 542 293 734 293 m 454 1344 q 495 1390 468 1374 q 551 1405 523 1405 q 647 1344 617 1405 l 786 1061 q 795 1018 795 1042 q 776 994 795 994 q 704 1035 747 994 l 550 1175 l 397 1035 q 328 994 352 994 q 304 1018 304 994 q 315 1061 304 1037 l 454 1344 z "},"ë":{"ha":1021,"x_min":50,"x_max":961,"o":"m 633 602 q 578 661 633 661 q 495 595 514 655 q 482 529 486 567 q 471 449 478 492 l 619 482 l 632 586 l 633 602 m 542 293 q 505 293 542 293 q 471 294 487 293 q 557 206 471 214 q 603 204 581 204 q 748 231 661 204 q 904 317 835 257 l 946 106 q 489 -25 795 -25 q 187 77 313 -25 q 50 387 50 189 q 127 655 50 536 q 322 820 199 764 q 587 876 445 876 q 866 795 772 876 q 961 596 961 715 q 847 385 960 477 q 542 293 734 293 m 351 1251 q 388 1251 351 1251 q 466 1213 426 1251 q 506 1115 506 1174 q 412 966 506 1007 q 338 951 380 951 q 220 991 260 951 q 180 1093 180 1031 q 228 1203 180 1156 q 351 1251 276 1251 m 762 1251 q 799 1251 762 1251 q 877 1213 837 1251 q 917 1115 917 1174 q 825 966 917 1006 q 751 951 792 951 q 633 991 674 951 q 592 1093 592 1031 q 640 1203 593 1155 q 762 1251 686 1251 z "},"ì":{"ha":475,"x_min":-113,"x_max":433,"o":"m 433 0 l 41 0 l 41 843 l 433 843 l 433 0 m 266 1008 q 241 970 266 970 q 178 1018 216 970 l -113 1383 l 163 1383 l 260 1044 q 266 1008 266 1027 z "},"í":{"ha":475,"x_min":41,"x_max":595,"o":"m 433 0 l 41 0 l 41 843 l 433 843 l 433 0 m 303 1019 q 240 971 265 971 q 216 1008 216 971 q 221 1045 216 1027 l 318 1383 l 595 1383 l 303 1019 z "},"î":{"ha":475,"x_min":-5,"x_max":487,"o":"m 433 0 l 41 0 l 41 843 l 433 843 l 433 0 m 145 1345 q 187 1391 159 1375 q 243 1407 214 1407 q 338 1345 309 1407 l 477 1063 q 487 1020 487 1044 q 467 996 487 996 q 395 1036 439 996 l 241 1176 l 88 1036 q 19 996 43 996 q -5 1019 -5 996 q 6 1063 -5 1038 l 145 1345 z "},"ï":{"ha":475,"x_min":-129,"x_max":608,"o":"m 433 0 l 41 0 l 41 843 l 433 843 l 433 0 m 42 1253 q 79 1253 42 1253 q 157 1214 117 1253 q 197 1116 197 1175 q 103 967 197 1008 q 28 953 71 953 q -89 992 -50 953 q -129 1095 -129 1032 q -81 1205 -129 1157 q 42 1253 -33 1253 m 452 1253 q 490 1253 452 1253 q 568 1214 528 1253 q 608 1116 608 1175 q 515 967 608 1008 q 441 953 483 953 q 324 992 365 953 q 283 1094 283 1032 q 330 1204 283 1156 q 452 1253 377 1253 z "},"ð":{"ha":1128,"x_min":50,"x_max":1076,"o":"m 484 667 q 697 629 583 667 q 551 844 697 791 l 515 721 l 374 749 l 408 867 q 179 833 293 867 l 140 1039 q 467 1083 322 1083 l 473 1083 l 526 1258 l 667 1231 l 618 1067 q 949 870 822 1022 q 1076 493 1076 718 q 905 96 1076 233 q 519 -25 752 -26 q 206 51 332 -25 q 50 343 50 145 q 180 594 50 509 q 484 667 290 667 m 693 471 q 640 485 676 485 q 498 421 567 485 q 430 293 429 357 q 465 205 430 229 q 496 196 477 197 q 693 285 585 196 l 693 471 z "},"ñ":{"ha":1140,"x_min":82,"x_max":1064,"o":"m 539 614 q 485 526 485 614 l 485 0 l 82 0 l 82 843 l 304 843 l 401 711 q 552 831 456 787 q 731 875 648 875 q 974 793 884 875 q 1064 575 1064 712 l 1064 0 l 659 0 l 659 407 q 539 614 659 614 m 879 1227 q 890 1217 890 1227 q 794 991 890 1027 q 727 981 765 981 q 642 992 689 981 q 508 1028 595 1003 q 377 1053 420 1053 q 313 1039 334 1053 q 283 1019 292 1025 q 269 1013 274 1013 q 256 1023 256 1013 q 357 1246 256 1212 q 428 1257 389 1257 q 611 1221 486 1257 q 768 1186 735 1186 q 816 1193 801 1186 q 844 1207 831 1199 q 864 1221 856 1215 q 879 1227 873 1227 z "},"ò":{"ha":1076,"x_min":50,"x_max":1025,"o":"m 666 603 q 631 610 652 610 q 584 597 610 610 q 533 563 558 585 q 444 451 480 517 q 408 330 408 385 q 450 256 408 275 q 487 249 465 249 q 532 262 509 249 q 580 298 556 275 q 667 411 629 345 q 704 531 704 478 q 666 603 704 584 m 534 -25 q 200 98 340 -25 q 50 426 50 228 q 191 749 50 623 q 537 875 331 875 q 884 752 743 875 q 1025 422 1024 629 q 958 189 1025 290 q 777 31 890 87 q 534 -25 663 -24 m 557 1006 q 532 969 557 969 q 469 1017 507 969 l 178 1381 l 454 1381 l 551 1043 q 557 1006 557 1025 z "},"ó":{"ha":1076,"x_min":50,"x_max":1025,"o":"m 666 603 q 631 610 652 610 q 584 597 610 610 q 533 563 558 585 q 444 451 480 517 q 408 330 408 385 q 450 256 408 275 q 487 249 465 249 q 532 262 509 249 q 580 298 556 275 q 667 411 629 345 q 704 531 704 478 q 666 603 704 584 m 534 -25 q 200 98 340 -25 q 50 426 50 228 q 191 749 50 623 q 537 875 331 875 q 884 752 743 875 q 1025 422 1024 629 q 958 189 1025 290 q 777 31 890 87 q 534 -25 663 -24 m 595 1017 q 532 970 557 970 q 507 1007 507 970 q 513 1044 507 1026 l 610 1382 l 886 1382 l 595 1017 z "},"ô":{"ha":1076,"x_min":50,"x_max":1025,"o":"m 666 603 q 631 610 652 610 q 584 597 610 610 q 533 563 558 585 q 444 451 480 517 q 408 330 408 385 q 450 256 408 275 q 487 249 465 249 q 532 262 509 249 q 580 298 556 275 q 667 411 629 345 q 704 531 704 478 q 666 603 704 584 m 534 -25 q 200 98 340 -25 q 50 426 50 228 q 191 749 50 623 q 537 875 331 875 q 884 752 743 875 q 1025 422 1024 629 q 958 189 1025 290 q 777 31 890 87 q 534 -25 663 -24 m 436 1344 q 478 1390 450 1374 q 534 1405 505 1405 q 629 1344 600 1405 l 768 1061 q 778 1018 778 1042 q 758 994 778 994 q 686 1035 730 994 l 532 1175 l 379 1035 q 310 994 334 994 q 286 1018 286 994 q 297 1061 286 1037 l 436 1344 z "},"õ":{"ha":1076,"x_min":50,"x_max":1025,"o":"m 666 603 q 631 610 652 610 q 584 597 610 610 q 533 563 558 585 q 444 451 480 517 q 408 330 408 385 q 450 256 408 275 q 487 249 465 249 q 532 262 509 249 q 580 298 556 275 q 667 411 629 345 q 704 531 704 478 q 666 603 704 584 m 534 -25 q 200 98 340 -25 q 50 426 50 228 q 191 749 50 623 q 537 875 331 875 q 884 752 743 875 q 1025 422 1024 629 q 958 189 1025 290 q 777 31 890 87 q 534 -25 663 -24 m 844 1226 q 855 1215 855 1226 q 760 990 855 1025 q 692 979 730 979 q 607 990 654 979 q 473 1026 560 1002 q 342 1051 386 1051 q 278 1037 299 1051 q 248 1017 257 1023 q 235 1011 239 1011 q 222 1022 222 1011 q 323 1244 221 1211 q 393 1255 354 1255 q 576 1220 452 1255 q 733 1185 701 1185 q 782 1191 766 1185 q 809 1205 797 1198 q 830 1220 821 1213 q 844 1226 838 1226 z "},"ö":{"ha":1076,"x_min":50,"x_max":1025,"o":"m 666 603 q 631 610 652 610 q 584 597 610 610 q 533 563 558 585 q 444 451 480 517 q 408 330 408 385 q 450 256 408 275 q 487 249 465 249 q 532 262 509 249 q 580 298 556 275 q 667 411 629 345 q 704 531 704 478 q 666 603 704 584 m 534 -25 q 200 98 340 -25 q 50 426 50 228 q 191 749 50 623 q 537 875 331 875 q 884 752 743 875 q 1025 422 1024 629 q 958 189 1025 290 q 777 31 890 87 q 534 -25 663 -24 m 333 1251 q 370 1251 333 1251 q 448 1213 408 1251 q 488 1115 488 1174 q 394 966 488 1007 q 319 951 361 951 q 202 991 241 951 q 162 1093 162 1031 q 210 1203 162 1156 q 333 1251 258 1251 m 743 1251 q 781 1251 743 1251 q 859 1213 819 1251 q 899 1115 899 1174 q 806 966 899 1006 q 732 951 774 951 q 615 991 656 951 q 574 1093 574 1031 q 621 1203 574 1155 q 743 1251 668 1251 z "},"÷":{"ha":486,"x_min":56,"x_max":431,"o":"m 255 875 q 298 875 255 875 q 386 825 340 875 q 431 702 431 774 q 377 571 431 629 q 231 512 323 512 q 98 561 140 513 q 56 681 56 608 q 113 814 56 753 q 255 875 170 875 m 254 363 q 297 363 254 363 q 385 313 339 363 q 431 191 431 263 q 377 59 431 118 q 232 0 323 0 q 98 49 140 0 q 56 170 56 98 q 113 302 56 241 q 254 363 170 363 z "},"ø":{"ha":1076,"x_min":50,"x_max":1025,"o":"m 193 751 q 346 842 258 810 q 513 875 433 875 q 665 861 593 875 l 714 986 l 825 949 l 778 822 q 1007 555 954 738 q 1025 424 1025 494 q 1006 294 1025 354 q 876 95 969 175 q 532 -25 729 -24 q 450 -18 492 -25 l 408 -125 l 297 -87 l 336 12 q 130 174 210 65 q 50 425 50 282 q 193 751 50 623 m 666 603 q 631 610 652 610 q 584 597 610 610 q 533 563 558 585 q 444 451 480 517 q 408 330 408 385 q 450 256 408 275 q 487 249 465 249 q 532 262 509 249 q 580 298 556 275 q 667 411 629 345 q 704 531 704 478 q 666 603 704 584 z "},"ù":{"ha":1139,"x_min":77,"x_max":1059,"o":"m 482 450 q 590 228 482 228 q 653 281 644 228 q 656 317 656 297 l 656 843 l 1059 843 l 1059 0 l 836 0 l 739 132 q 490 -20 653 15 q 169 47 291 -63 q 77 268 77 131 l 77 843 l 482 843 l 482 450 m 596 1006 q 571 969 596 969 q 509 1017 547 969 l 217 1381 l 493 1381 l 591 1043 q 596 1006 596 1025 z "},"ú":{"ha":1139,"x_min":77,"x_max":1059,"o":"m 482 450 q 590 228 482 228 q 653 281 644 228 q 656 317 656 297 l 656 843 l 1059 843 l 1059 0 l 836 0 l 739 132 q 490 -20 653 15 q 169 47 291 -63 q 77 268 77 131 l 77 843 l 482 843 l 482 450 m 633 1017 q 571 970 595 970 q 546 1007 546 970 q 551 1044 546 1026 l 648 1382 l 925 1382 l 633 1017 z "},"û":{"ha":1139,"x_min":77,"x_max":1059,"o":"m 482 450 q 590 228 482 228 q 653 281 644 228 q 656 317 656 297 l 656 843 l 1059 843 l 1059 0 l 836 0 l 739 132 q 490 -20 653 15 q 169 47 291 -63 q 77 268 77 131 l 77 843 l 482 843 l 482 450 m 475 1344 q 516 1390 489 1374 q 572 1405 544 1405 q 668 1344 638 1405 l 807 1061 q 817 1018 817 1042 q 797 994 817 994 q 725 1035 768 994 l 571 1175 l 418 1035 q 349 994 373 994 q 325 1018 325 994 q 336 1061 325 1037 l 475 1344 z "},"ü":{"ha":1139,"x_min":77,"x_max":1059,"o":"m 482 450 q 590 228 482 228 q 653 281 644 228 q 656 317 656 297 l 656 843 l 1059 843 l 1059 0 l 836 0 l 739 132 q 490 -20 653 15 q 169 47 291 -63 q 77 268 77 131 l 77 843 l 482 843 l 482 450 m 372 1251 q 409 1251 372 1251 q 487 1213 447 1251 q 527 1115 527 1174 q 433 966 527 1007 q 359 951 401 951 q 241 991 281 951 q 201 1093 201 1031 q 249 1203 201 1156 q 372 1251 297 1251 m 783 1251 q 820 1251 783 1251 q 898 1213 858 1251 q 938 1115 938 1174 q 846 966 938 1006 q 772 951 813 951 q 654 991 695 951 q 613 1093 613 1031 q 661 1203 614 1155 q 783 1251 707 1251 z "},"ý":{"ha":1120,"x_min":60,"x_max":1101,"o":"m 136 18 q 317 -1 208 -1 q 408 57 385 -1 q 415 94 415 75 q 408 134 415 113 l 60 843 l 464 843 l 610 517 l 746 843 l 1101 843 l 785 56 q 646 -172 722 -98 q 416 -261 553 -261 q 136 -222 230 -261 l 136 18 m 665 1017 q 603 970 627 970 q 578 1007 578 970 q 583 1044 578 1026 l 680 1382 l 957 1382 l 665 1017 z "},"þ":{"ha":1168,"x_min":69,"x_max":1109,"o":"m 69 1083 l 464 1083 l 464 743 q 675 848 551 826 q 736 854 709 854 q 1011 736 913 854 q 1109 454 1109 617 q 984 152 1109 292 q 713 -2 887 45 q 505 -26 623 -26 l 461 -26 l 461 -240 l 69 -240 l 69 1083 m 660 572 q 463 484 571 572 l 463 228 l 529 228 q 662 310 597 228 q 726 479 726 393 q 690 564 726 540 q 660 572 678 572 z "},"ÿ":{"ha":1120,"x_min":60,"x_max":1101,"o":"m 136 18 q 317 -1 208 -1 q 408 57 385 -1 q 415 94 415 75 q 408 134 415 113 l 60 843 l 464 843 l 610 517 l 746 843 l 1101 843 l 785 56 q 646 -172 722 -98 q 416 -261 553 -261 q 136 -222 230 -261 l 136 18 m 404 1251 q 441 1251 404 1251 q 519 1213 479 1251 q 559 1115 559 1174 q 465 966 559 1007 q 391 951 433 951 q 273 991 313 951 q 233 1093 233 1031 q 281 1203 233 1156 q 404 1251 329 1251 m 814 1251 q 852 1251 814 1251 q 930 1213 890 1251 q 970 1115 970 1174 q 878 966 970 1006 q 804 951 845 951 q 686 991 727 951 q 645 1093 645 1031 q 692 1203 646 1155 q 814 1251 739 1251 z "},"Ć":{"ha":1035,"x_min":41,"x_max":961,"o":"m 937 730 q 843 747 893 747 q 664 672 740 747 q 587 493 587 597 q 614 384 587 423 q 688 345 642 345 q 792 369 735 345 q 958 473 848 393 l 958 32 q 651 -26 814 -26 q 352 36 489 -26 q 65 348 134 136 q 42 508 42 420 q 63 675 41 595 q 126 823 85 755 q 358 1037 209 960 q 701 1114 508 1114 q 937 1080 848 1114 l 937 730 m 669 1230 q 607 1182 631 1182 q 582 1219 582 1182 q 587 1256 582 1238 l 684 1594 l 961 1594 l 669 1230 z "},"ć":{"ha":843,"x_min":50,"x_max":804,"o":"m 568 257 q 766 354 637 257 l 766 22 q 356 -1 544 -62 q 90 214 168 59 q 50 399 50 293 q 197 744 50 612 q 578 876 343 876 q 753 847 675 876 l 753 586 q 701 602 734 602 q 630 581 668 602 q 561 524 592 559 q 489 357 489 443 q 541 260 490 271 q 568 257 555 258 m 513 1019 q 450 971 475 971 q 425 1008 425 971 q 431 1045 425 1027 l 528 1383 l 804 1383 l 513 1019 z "},"Ĉ":{"ha":1035,"x_min":41,"x_max":958,"o":"m 937 730 q 843 747 893 747 q 664 672 740 747 q 587 493 587 597 q 614 384 587 423 q 688 345 642 345 q 792 369 735 345 q 958 473 848 393 l 958 32 q 651 -26 814 -26 q 352 36 489 -26 q 65 348 134 136 q 42 508 42 420 q 63 675 41 595 q 126 823 85 755 q 358 1037 209 960 q 701 1114 508 1114 q 937 1080 848 1114 l 937 730 m 511 1556 q 552 1602 525 1586 q 608 1617 580 1617 q 704 1556 674 1617 l 843 1274 q 852 1231 852 1255 q 833 1206 852 1206 q 761 1247 804 1206 l 607 1387 l 454 1247 q 385 1206 409 1206 q 361 1230 361 1206 q 372 1274 361 1249 l 511 1556 z "},"ĉ":{"ha":843,"x_min":26,"x_max":742,"o":"m 544 257 q 742 354 612 257 l 742 22 q 332 -1 519 -62 q 65 214 144 59 q 26 399 26 293 q 172 744 26 612 q 553 876 319 876 q 728 847 650 876 l 728 586 q 677 602 710 602 q 606 581 644 602 q 536 524 568 559 q 465 357 465 443 q 517 260 465 271 q 544 257 530 258 m 354 1345 q 396 1391 368 1375 q 452 1407 423 1407 q 547 1345 517 1407 l 686 1063 q 696 1020 696 1044 q 676 996 696 996 q 604 1036 648 996 l 450 1176 l 297 1036 q 228 996 252 996 q 204 1019 204 996 q 215 1063 204 1038 l 354 1345 z "},"Č":{"ha":1035,"x_min":41,"x_max":958,"o":"m 937 730 q 843 747 893 747 q 664 672 740 747 q 587 493 587 597 q 614 384 587 423 q 688 345 642 345 q 792 369 735 345 q 958 473 848 393 l 958 32 q 651 -26 814 -26 q 352 36 489 -26 q 65 348 134 136 q 42 508 42 420 q 63 675 41 595 q 126 823 85 755 q 358 1037 209 960 q 701 1114 508 1114 q 937 1080 848 1114 l 937 730 m 372 1547 q 361 1593 361 1573 q 386 1613 361 1613 q 454 1573 410 1613 l 607 1433 l 762 1573 q 829 1613 804 1613 q 853 1590 853 1613 q 843 1547 853 1567 l 705 1263 q 608 1202 675 1202 q 553 1218 581 1202 q 511 1263 526 1234 l 372 1547 z "},"č":{"ha":843,"x_min":50,"x_max":766,"o":"m 568 257 q 766 354 637 257 l 766 22 q 356 -1 544 -62 q 90 214 168 59 q 50 399 50 293 q 197 744 50 612 q 578 876 343 876 q 753 847 675 876 l 753 586 q 701 602 734 602 q 630 581 668 602 q 561 524 592 559 q 489 357 489 443 q 541 260 490 271 q 568 257 555 258 m 216 1336 q 205 1382 205 1362 q 229 1402 205 1402 q 298 1362 254 1402 l 450 1222 l 605 1362 q 672 1402 648 1402 q 696 1379 696 1402 q 686 1336 696 1356 l 548 1053 q 452 991 518 991 q 396 1007 424 991 q 355 1053 369 1023 l 216 1336 z "},"Ď":{"ha":1227,"x_min":83,"x_max":1177,"o":"m 83 1083 q 621 1114 495 1114 q 820 1090 747 1114 q 950 1025 892 1067 q 1119 814 1062 946 q 1177 548 1177 683 q 1133 312 1177 413 q 1012 142 1089 212 q 603 0 854 -1 l 83 0 l 83 1083 m 505 739 l 505 326 q 583 387 541 357 q 745 629 745 503 q 708 744 745 691 q 613 796 671 796 q 505 739 554 796 m 332 1548 q 321 1594 321 1573 q 346 1614 321 1614 q 414 1574 370 1614 l 567 1434 l 722 1574 q 789 1614 764 1614 q 813 1591 813 1614 q 803 1548 813 1568 l 665 1264 q 568 1203 635 1203 q 513 1219 541 1203 q 471 1264 486 1235 l 332 1548 z "},"ď":{"ha":1211,"x_min":50,"x_max":1603,"o":"m 568 873 q 734 847 649 873 l 734 1141 l 1129 1141 l 1129 0 l 878 0 l 781 140 q 454 -24 656 -24 q 171 86 292 -24 q 50 369 50 197 q 121 652 50 541 q 568 873 260 873 m 734 587 q 684 602 711 602 q 632 591 657 602 q 540 518 581 568 q 503 466 518 494 q 471 348 471 406 q 507 266 471 289 q 538 257 519 258 q 734 346 626 257 l 734 587 m 1190 1141 q 1296 1211 1265 1141 q 1312 1282 1309 1242 l 1190 1282 l 1190 1568 l 1603 1568 l 1603 1294 q 1375 989 1603 1054 q 1190 966 1297 966 l 1190 1141 z "},"Đ":{"ha":1227,"x_min":33,"x_max":1177,"o":"m 83 1083 q 621 1114 495 1114 q 820 1090 747 1114 q 950 1025 892 1067 q 1119 814 1062 946 q 1177 548 1177 683 q 1133 312 1177 413 q 1012 142 1089 212 q 603 0 854 -1 l 83 0 l 83 507 l 33 507 l 33 667 l 83 667 l 83 1083 m 505 739 l 505 667 l 625 667 l 625 507 l 505 507 l 505 326 q 583 387 541 357 q 745 629 745 503 q 708 744 745 691 q 613 796 671 796 q 505 739 554 796 z "},"đ":{"ha":1211,"x_min":50,"x_max":1227,"o":"m 568 873 q 734 847 649 873 l 734 925 l 608 925 l 608 1026 l 734 1026 l 734 1141 l 1129 1141 l 1129 1026 l 1227 1026 l 1227 925 l 1129 925 l 1129 0 l 878 0 l 781 140 q 454 -24 656 -24 q 171 86 292 -24 q 50 369 50 197 q 121 652 50 541 q 568 873 260 873 m 734 587 q 684 602 711 602 q 632 591 657 602 q 540 518 581 568 q 503 466 518 494 q 471 348 471 406 q 507 266 471 289 q 538 257 519 258 q 734 346 626 257 l 734 587 z "},"Ě":{"ha":965,"x_min":83,"x_max":888,"o":"m 83 1083 l 864 1083 l 864 771 l 505 771 l 505 682 l 863 682 l 863 416 l 505 416 l 505 314 l 888 314 l 888 0 l 83 0 l 83 1083 m 243 1547 q 233 1593 233 1573 q 257 1613 233 1613 q 326 1573 281 1613 l 478 1433 l 633 1573 q 700 1613 675 1613 q 724 1590 724 1613 q 714 1547 724 1567 l 576 1263 q 479 1202 546 1202 q 424 1218 452 1202 q 382 1263 397 1234 l 243 1547 z "},"ě":{"ha":1021,"x_min":50,"x_max":961,"o":"m 633 602 q 578 661 633 661 q 495 595 514 655 q 482 529 486 567 q 471 449 478 492 l 619 482 l 632 586 l 633 602 m 542 293 q 505 293 542 293 q 471 294 487 293 q 557 206 471 214 q 603 204 581 204 q 748 231 661 204 q 904 317 835 257 l 946 106 q 489 -25 795 -25 q 187 77 313 -25 q 50 387 50 189 q 127 655 50 536 q 322 820 199 764 q 587 876 445 876 q 866 795 772 876 q 961 596 961 715 q 847 385 960 477 q 542 293 734 293 m 315 1335 q 304 1381 304 1360 q 329 1401 304 1401 q 397 1361 353 1401 l 550 1221 l 705 1361 q 772 1401 747 1401 q 796 1378 796 1401 q 786 1335 796 1355 l 648 1051 q 551 990 618 990 q 496 1006 524 990 q 454 1051 469 1022 l 315 1335 z "},"Ğ":{"ha":1169,"x_min":43,"x_max":1097,"o":"m 949 515 l 1053 516 q 1097 517 1091 516 l 1097 14 q 718 -26 859 -26 q 452 14 576 -26 q 237 129 328 54 q 94 310 146 203 q 43 547 43 416 q 249 960 43 806 q 777 1114 454 1114 q 1027 1080 935 1114 q 1044 1074 1043 1074 l 1044 746 q 861 777 945 777 q 623 696 709 777 q 538 510 537 615 q 578 390 538 437 q 689 343 618 343 q 747 353 727 343 q 749 417 749 378 l 749 515 q 949 515 849 515 m 1068 1586 q 958 1294 1068 1415 q 650 1173 848 1173 q 341 1295 451 1173 q 232 1591 232 1417 l 524 1591 q 556 1462 523 1515 q 649 1410 590 1410 q 742 1461 709 1410 q 775 1586 775 1512 l 1068 1586 z "},"ğ":{"ha":1154,"x_min":50,"x_max":1079,"o":"m 389 -347 l 389 -107 q 464 -119 423 -111 q 544 -126 505 -126 q 615 -117 583 -126 q 674 -83 648 -109 q 730 104 730 -27 q 443 -25 612 -25 q 162 81 275 -26 q 50 387 50 189 q 113 641 50 530 q 280 813 175 751 q 505 875 386 875 q 711 797 624 875 q 760 739 739 772 l 857 843 l 1079 843 l 1079 0 q 844 -343 1080 -261 q 626 -376 749 -376 q 389 -347 504 -376 m 714 587 q 663 602 690 602 q 611 591 636 602 q 519 518 559 568 q 450 350 450 439 q 486 266 450 290 q 578 267 515 246 q 714 346 637 286 l 714 587 m 930 1374 q 821 1082 930 1203 q 512 960 711 960 q 204 1083 313 960 q 94 1379 94 1205 l 386 1379 q 419 1250 385 1303 q 512 1198 452 1198 q 604 1249 571 1198 q 637 1374 637 1299 l 930 1374 z "},"Ħ":{"ha":1236,"x_min":83,"x_max":1153,"o":"m 505 967 l 730 967 l 730 1083 l 1153 1083 l 1153 0 l 730 0 l 730 400 l 505 380 l 505 0 l 83 0 l 83 1083 l 505 1083 l 505 967 m 730 836 l 505 836 l 505 692 l 730 710 l 730 836 z "},"ħ":{"ha":1118,"x_min":-7,"x_max":1090,"o":"m 502 753 q 779 875 593 875 q 892 850 832 875 q 996 780 951 826 q 1090 519 1090 682 l 1090 0 l 685 0 l 685 366 q 650 545 685 475 q 567 615 614 615 q 502 526 502 615 l 502 0 l 99 0 l 99 906 l -7 906 l -7 1044 l 99 1044 l 99 1141 l 502 1141 l 502 1044 l 612 1044 l 612 906 l 502 906 l 502 753 z "},"Ĩ":{"ha":587,"x_min":-9,"x_max":624,"o":"m 505 0 l 83 0 l 83 1083 l 505 1083 l 505 0 m 613 1438 q 624 1428 624 1438 q 528 1202 624 1238 q 461 1192 499 1192 q 376 1203 423 1192 q 242 1239 329 1214 q 111 1263 155 1263 q 47 1250 68 1263 q 17 1230 26 1236 q 3 1223 8 1223 q -9 1234 -9 1223 q 92 1457 -10 1423 q 162 1468 123 1468 q 345 1432 220 1468 q 502 1397 469 1397 q 550 1403 535 1397 q 578 1418 566 1410 q 598 1432 590 1426 q 613 1438 607 1438 z "},"ĩ":{"ha":475,"x_min":-69,"x_max":564,"o":"m 433 0 l 41 0 l 41 843 l 433 843 l 433 0 m 553 1227 q 564 1217 564 1227 q 469 991 564 1027 q 401 981 439 981 q 316 992 363 981 q 182 1028 269 1003 q 52 1053 95 1053 q -13 1039 8 1053 q -43 1019 -34 1025 q -56 1013 -52 1013 q -69 1023 -69 1013 q 32 1246 -70 1212 q 102 1257 63 1257 q 285 1221 161 1257 q 443 1186 410 1186 q 491 1193 475 1186 q 518 1207 506 1199 q 539 1221 530 1215 q 553 1227 547 1227 z "},"Į":{"ha":579,"x_min":79,"x_max":505,"o":"m 505 0 l 83 0 l 83 1083 l 505 1083 l 505 0 m 256 -262 q 315 -328 256 -328 q 445 -292 374 -328 q 468 -285 458 -285 q 491 -297 478 -285 q 503 -329 503 -310 q 477 -368 503 -347 q 262 -427 388 -427 q 88 -342 137 -427 q 79 -221 58 -288 q 260 0 112 -110 l 353 0 q 256 -262 256 -174 z "},"į":{"ha":539,"x_min":62,"x_max":487,"o":"m 291 1234 q 341 1234 291 1234 q 439 1192 391 1234 q 487 1086 487 1150 q 425 967 486 1021 q 261 913 363 913 q 82 1000 117 913 q 72 1054 72 1024 q 86 1116 72 1084 q 129 1175 100 1149 q 291 1234 192 1234 m 475 0 l 82 0 l 82 843 l 475 843 l 475 0 m 239 -262 q 298 -328 239 -328 q 428 -292 357 -328 q 451 -285 441 -285 q 474 -297 461 -285 q 486 -329 486 -310 q 460 -368 486 -347 q 245 -427 371 -427 q 71 -342 120 -427 q 62 -221 41 -288 q 243 0 95 -110 l 336 0 q 239 -262 239 -174 z "},"İ":{"ha":587,"x_min":83,"x_max":528,"o":"m 505 0 l 83 0 l 83 1083 l 505 1083 l 505 0 m 336 1621 q 383 1621 336 1621 q 478 1567 430 1621 q 527 1431 527 1512 q 468 1286 528 1350 q 309 1222 408 1222 q 162 1275 210 1222 q 115 1408 115 1327 q 178 1554 115 1488 q 336 1621 241 1621 z "},"ı":{"ha":475,"x_min":41,"x_max":433,"o":"m 433 0 l 41 0 l 41 843 l 433 843 l 433 0 z "},"Ĳ":{"ha":1655,"x_min":83,"x_max":1588,"o":"m 505 0 l 83 0 l 83 1083 l 505 1083 l 505 0 m 1060 -26 q 882 -3 970 -26 q 729 71 793 21 q 593 385 593 177 l 593 488 l 970 539 l 970 435 q 1026 313 970 340 q 1095 315 1060 296 q 1126 342 1113 324 q 1156 439 1156 380 l 1156 1083 l 1588 1083 l 1588 559 q 1337 27 1588 151 q 1060 -26 1230 -26 z "},"ĳ":{"ha":1167,"x_min":72,"x_max":1099,"o":"m 784 -273 q 499 -175 621 -273 l 500 -47 q 559 -59 528 -59 q 611 -42 590 -59 q 650 1 632 -24 q 690 120 690 62 l 690 843 l 1096 843 l 1096 28 q 1006 -191 1096 -110 q 784 -273 916 -273 m 904 1234 q 953 1234 904 1234 q 1050 1192 1002 1234 q 1099 1086 1099 1150 q 1037 967 1099 1021 q 874 913 976 913 q 695 1000 730 913 q 685 1054 685 1024 q 699 1116 685 1084 q 742 1175 713 1149 q 904 1234 805 1234 m 291 1234 q 341 1234 291 1234 q 439 1192 391 1234 q 487 1086 487 1150 q 425 967 486 1021 q 261 913 363 913 q 82 1000 117 913 q 72 1054 72 1024 q 86 1116 72 1084 q 129 1175 100 1149 q 291 1234 192 1234 m 475 0 l 82 0 l 82 843 l 475 843 l 475 0 z "},"Ĵ":{"ha":1126,"x_min":65,"x_max":1060,"o":"m 532 -26 q 353 -3 442 -26 q 201 71 264 21 q 65 385 65 177 l 65 488 l 441 539 l 441 435 q 498 313 441 340 q 567 315 532 296 q 598 342 585 324 q 628 439 628 380 l 628 1083 l 1060 1083 l 1060 559 q 809 27 1060 151 q 532 -26 702 -26 m 709 1556 q 751 1602 724 1586 q 807 1617 779 1617 q 903 1556 873 1617 l 1042 1274 q 1051 1231 1051 1255 q 1031 1206 1051 1206 q 960 1247 1003 1206 l 806 1387 l 652 1247 q 584 1206 608 1206 q 559 1230 559 1206 q 570 1274 559 1249 l 709 1556 z "},"ĵ":{"ha":654,"x_min":20,"x_max":654,"o":"m 304 -225 q 20 -127 141 -225 l 21 47 q 79 36 48 36 q 132 53 111 36 q 170 96 153 71 q 211 215 211 157 l 211 843 l 616 843 l 616 75 q 527 -144 616 -62 q 304 -225 437 -225 m 313 1345 q 354 1391 327 1375 q 410 1407 382 1407 q 506 1345 476 1407 l 645 1063 q 654 1020 654 1044 q 635 996 654 996 q 563 1036 606 996 l 409 1176 l 256 1036 q 187 996 211 996 q 163 1019 163 996 q 174 1063 163 1038 l 313 1345 z "},"ķ":{"ha":1055,"x_min":83,"x_max":1036,"o":"m 453 273 q 441 250 444 258 l 441 0 l 83 0 l 83 1141 l 435 1141 l 435 591 l 595 843 l 994 843 l 734 475 l 1036 0 l 623 0 l 453 273 m 283 -518 q 390 -448 359 -518 q 406 -378 403 -417 l 283 -378 l 283 -92 l 696 -92 l 696 -366 q 469 -671 696 -606 q 283 -693 391 -693 l 283 -518 z "},"ĸ":{"ha":1055,"x_min":83,"x_max":1036,"o":"m 435 843 l 435 578 l 595 843 l 994 843 l 726 453 l 1036 0 l 623 0 l 441 282 l 441 0 l 83 0 l 83 843 l 435 843 z "},"Ĺ":{"ha":890,"x_min":83,"x_max":869,"o":"m 83 1083 l 505 1083 l 505 326 l 869 326 l 869 0 l 83 0 l 83 1083 m 364 1230 q 301 1183 326 1183 q 277 1220 277 1183 q 282 1257 277 1239 l 379 1595 l 656 1595 l 364 1230 z "},"ĺ":{"ha":550,"x_min":83,"x_max":633,"o":"m 468 0 l 83 0 l 83 1141 l 468 1141 l 468 0 m 342 1269 q 279 1221 304 1221 q 254 1259 254 1221 q 260 1295 254 1278 l 357 1634 l 633 1634 l 342 1269 z "},"Ľ":{"ha":1006,"x_min":83,"x_max":1006,"o":"m 83 1083 l 505 1083 l 505 326 l 869 326 l 869 0 l 83 0 l 83 1083 m 593 658 q 699 728 668 658 q 715 798 712 759 l 593 798 l 593 1084 l 1006 1084 l 1006 810 q 779 505 1006 570 q 593 483 701 483 l 593 658 z "},"ľ":{"ha":550,"x_min":34,"x_max":526,"o":"m 468 0 l 83 0 l 83 1141 l 468 1141 l 468 0 m 45 1586 q 34 1632 34 1612 q 58 1653 34 1653 q 127 1613 83 1653 l 279 1472 l 434 1613 q 501 1653 477 1653 q 526 1630 526 1653 q 515 1586 526 1607 l 377 1303 q 281 1242 347 1242 q 225 1258 253 1242 q 184 1303 198 1274 l 45 1586 z "},"Ŀ":{"ha":890,"x_min":83,"x_max":1032,"o":"m 83 1083 l 505 1083 l 505 326 l 869 326 l 869 0 l 83 0 l 83 1083 m 841 861 q 888 861 841 861 q 984 807 935 861 q 1032 673 1032 753 q 972 527 1032 592 q 814 463 913 463 q 667 516 715 463 q 620 648 620 568 q 683 794 620 728 q 841 861 746 861 z "},"ŀ":{"ha":1026,"x_min":83,"x_max":993,"o":"m 468 0 l 83 0 l 83 1141 l 468 1141 l 468 0 m 801 841 q 849 841 801 841 q 944 788 896 842 q 993 653 993 734 q 933 508 993 572 q 774 443 873 443 q 628 496 675 444 q 581 628 581 549 q 644 774 581 708 q 801 841 707 841 z "},"Ł":{"ha":896,"x_min":0,"x_max":869,"o":"m 0 618 l 83 647 l 83 1083 l 505 1083 l 505 798 l 629 842 l 629 590 l 505 546 l 505 326 l 869 326 l 869 0 l 83 0 l 83 396 l 0 367 l 0 618 z "},"ł":{"ha":503,"x_min":-37,"x_max":591,"o":"m 468 798 l 591 842 l 591 590 l 468 546 l 468 0 l 83 0 l 83 410 l -37 367 l -37 618 l 83 660 l 83 1203 l 468 1203 l 468 798 z "},"Ń":{"ha":1250,"x_min":83,"x_max":1166,"o":"m 83 1083 l 193 1083 l 785 661 l 785 1083 l 1166 1083 l 1166 0 l 1021 0 l 464 372 l 464 0 l 83 0 l 83 1083 m 714 1230 q 651 1182 676 1182 q 627 1219 627 1182 q 632 1256 627 1238 l 729 1594 l 1006 1594 l 714 1230 z "},"ń":{"ha":1140,"x_min":82,"x_max":1064,"o":"m 539 614 q 485 526 485 614 l 485 0 l 82 0 l 82 843 l 304 843 l 401 711 q 552 831 456 787 q 731 875 648 875 q 974 793 884 875 q 1064 575 1064 712 l 1064 0 l 659 0 l 659 407 q 539 614 659 614 m 629 1019 q 567 971 591 971 q 542 1008 542 971 q 547 1045 542 1027 l 644 1383 l 921 1383 l 629 1019 z "},"Ň":{"ha":1250,"x_min":83,"x_max":1166,"o":"m 83 1083 l 193 1083 l 785 661 l 785 1083 l 1166 1083 l 1166 0 l 1021 0 l 464 372 l 464 0 l 83 0 l 83 1083 m 417 1547 q 406 1593 406 1573 q 431 1613 406 1613 q 499 1573 455 1613 l 652 1433 l 806 1573 q 873 1613 849 1613 q 898 1590 898 1613 q 888 1547 898 1567 l 749 1263 q 653 1202 720 1202 q 598 1218 625 1202 q 556 1263 570 1234 l 417 1547 z "},"ň":{"ha":1140,"x_min":82,"x_max":1064,"o":"m 539 614 q 485 526 485 614 l 485 0 l 82 0 l 82 843 l 304 843 l 401 711 q 552 831 456 787 q 731 875 648 875 q 974 793 884 875 q 1064 575 1064 712 l 1064 0 l 659 0 l 659 407 q 539 614 659 614 m 332 1336 q 321 1382 321 1362 q 346 1402 321 1402 q 414 1362 370 1402 l 567 1222 l 722 1362 q 789 1402 764 1402 q 813 1379 813 1402 q 803 1336 813 1356 l 665 1053 q 568 991 635 991 q 513 1007 541 991 q 471 1053 486 1023 l 332 1336 z "},"Ő":{"ha":1317,"x_min":50,"x_max":1265,"o":"m 839 671 q 729 786 839 786 q 623 726 682 786 q 501 511 536 636 q 490 439 490 472 q 604 326 490 326 q 708 387 650 326 q 828 604 793 476 q 839 671 839 643 m 654 -26 q 236 130 413 -26 q 138 243 180 179 q 50 545 50 378 q 132 841 50 712 q 350 1042 213 970 q 634 1114 487 1114 q 892 1074 781 1114 q 1087 961 1004 1035 q 1218 781 1171 888 q 1265 541 1265 675 q 1181 244 1265 374 q 955 44 1096 114 q 654 -26 814 -26 m 475 1242 l 504 1600 l 781 1600 l 558 1234 q 502 1187 529 1187 q 475 1242 475 1187 m 779 1223 l 781 1261 l 868 1600 l 1158 1600 l 867 1234 q 802 1190 831 1190 q 779 1223 779 1190 z "},"ő":{"ha":1076,"x_min":50,"x_max":1038,"o":"m 666 603 q 631 610 652 610 q 584 597 610 610 q 533 563 558 585 q 444 451 480 517 q 408 330 408 385 q 450 256 408 275 q 487 249 465 249 q 532 262 509 249 q 580 298 556 275 q 667 411 629 345 q 704 531 704 478 q 666 603 704 584 m 534 -25 q 200 98 340 -25 q 50 426 50 228 q 191 749 50 623 q 537 875 331 875 q 884 752 743 875 q 1025 422 1024 629 q 958 189 1025 290 q 777 31 890 87 q 534 -25 663 -24 m 355 1030 l 384 1388 l 661 1388 l 438 1022 q 382 975 409 975 q 355 1030 355 975 m 659 1011 l 661 1048 l 748 1388 l 1038 1388 l 747 1022 q 682 978 711 978 q 659 1011 659 978 z "},"Œ":{"ha":1603,"x_min":32,"x_max":1561,"o":"m 32 501 q 78 734 32 627 q 209 919 125 841 q 409 1041 292 997 q 664 1084 525 1084 l 1561 1084 l 1561 789 l 1219 789 l 1219 686 l 1547 686 l 1547 421 l 1219 421 l 1219 318 l 1561 318 l 1561 0 l 545 0 q 179 146 328 0 q 32 501 34 288 m 821 676 q 711 786 821 786 q 605 726 663 786 q 483 511 517 637 q 472 439 472 472 q 586 326 472 326 q 689 387 631 326 q 810 604 774 476 q 821 676 821 643 z "},"œ":{"ha":1725,"x_min":50,"x_max":1531,"o":"m 821 93 q 489 -25 674 -25 q 165 104 281 -26 q 50 415 50 233 q 170 729 50 597 q 530 875 302 875 q 836 750 709 875 q 1193 876 981 876 q 1445 800 1359 876 q 1531 605 1531 724 q 1426 382 1531 486 q 1147 279 1320 279 q 1122 279 1135 279 q 1093 281 1109 279 q 1165 222 1093 227 q 1206 221 1185 221 q 1317 238 1259 221 q 1468 317 1375 256 l 1510 106 q 1345 8 1458 41 q 1108 -25 1232 -25 q 821 93 943 -25 m 489 258 q 601 354 541 259 q 660 526 661 448 q 642 585 660 561 q 594 608 624 608 q 545 596 565 608 q 471 515 506 572 q 411 343 411 428 q 489 258 411 258 m 1210 586 l 1211 602 q 1156 661 1211 661 q 1081 595 1100 655 q 1067 529 1072 567 q 1057 449 1063 492 l 1197 482 l 1210 586 z "},"Ŕ":{"ha":1299,"x_min":83,"x_max":1253,"o":"m 770 741 q 699 836 770 836 q 614 814 668 836 l 524 777 l 524 511 q 770 741 770 603 m 1173 729 q 958 385 1173 512 l 1253 0 l 717 0 l 526 314 l 526 0 l 83 0 l 83 1083 q 647 1114 513 1114 q 850 1097 781 1114 q 1126 909 1043 1053 q 1173 729 1172 826 m 615 1230 q 552 1182 577 1182 q 528 1219 528 1182 q 533 1256 528 1238 l 630 1594 l 907 1594 l 615 1230 z "},"ŕ":{"ha":722,"x_min":82,"x_max":685,"o":"m 685 525 q 557 479 623 525 q 490 393 491 434 l 490 0 l 82 0 l 82 843 l 490 843 l 490 753 q 576 836 525 805 q 685 873 627 867 l 685 525 m 391 1019 q 328 971 353 971 q 303 1008 303 971 q 309 1045 303 1027 l 406 1383 l 682 1383 l 391 1019 z "},"Ŗ":{"ha":1299,"x_min":83,"x_max":1253,"o":"m 770 741 q 699 836 770 836 q 614 814 668 836 l 524 777 l 524 511 q 770 741 770 603 m 1173 729 q 958 385 1173 512 l 1253 0 l 717 0 l 526 314 l 526 0 l 83 0 l 83 1083 q 647 1114 513 1114 q 850 1097 781 1114 q 1126 909 1043 1053 q 1173 729 1172 826 m 443 -518 q 549 -448 518 -518 q 565 -378 562 -417 l 443 -378 l 443 -92 l 856 -92 l 856 -366 q 629 -671 856 -606 q 443 -693 551 -693 l 443 -518 z "},"ŗ":{"ha":722,"x_min":73,"x_max":676,"o":"m 676 525 q 548 479 614 525 q 481 393 482 434 l 481 0 l 73 0 l 73 843 l 481 843 l 481 753 q 567 836 516 805 q 676 873 618 867 l 676 525 m 84 -518 q 191 -448 159 -518 q 206 -378 203 -417 l 84 -378 l 84 -92 l 497 -92 l 497 -366 q 270 -671 497 -606 q 84 -693 192 -693 l 84 -518 z "},"Ř":{"ha":1299,"x_min":83,"x_max":1253,"o":"m 770 741 q 699 836 770 836 q 614 814 668 836 l 524 777 l 524 511 q 770 741 770 603 m 1173 729 q 958 385 1173 512 l 1253 0 l 717 0 l 526 314 l 526 0 l 83 0 l 83 1083 q 647 1114 513 1114 q 850 1097 781 1114 q 1126 909 1043 1053 q 1173 729 1172 826 m 318 1547 q 307 1593 307 1573 q 332 1613 307 1613 q 400 1573 356 1613 l 553 1433 l 707 1573 q 774 1613 750 1613 q 799 1590 799 1613 q 789 1547 799 1567 l 650 1263 q 554 1202 621 1202 q 499 1218 526 1202 q 457 1263 471 1234 l 318 1547 z "},"ř":{"ha":722,"x_min":73,"x_max":676,"o":"m 676 525 q 548 479 614 525 q 481 393 482 434 l 481 0 l 73 0 l 73 843 l 481 843 l 481 753 q 567 836 516 805 q 676 873 618 867 l 676 525 m 123 1336 q 113 1382 113 1362 q 137 1402 113 1402 q 205 1362 161 1402 l 358 1222 l 513 1362 q 580 1402 555 1402 q 604 1379 604 1402 q 594 1336 604 1356 l 456 1053 q 359 991 426 991 q 304 1007 332 991 q 262 1053 277 1023 l 123 1336 z "},"Ş":{"ha":981,"x_min":65,"x_max":920,"o":"m 472 -26 q 68 49 168 -26 l 68 359 q 88 353 71 359 q 132 340 105 348 q 261 304 193 321 q 371 288 330 288 q 439 329 439 288 q 380 397 439 361 q 320 431 354 413 q 252 470 287 448 q 116 592 168 522 q 65 768 65 662 q 311 1081 65 1001 q 541 1114 410 1114 q 814 1084 671 1114 q 852 1075 843 1078 l 852 764 q 587 803 668 803 q 541 792 556 803 q 525 768 525 781 q 538 740 525 754 q 585 710 552 725 q 663 675 618 696 q 746 631 707 654 q 920 340 920 524 q 802 69 920 165 q 472 -26 682 -26 m 368 -222 l 431 0 l 524 0 l 483 -129 l 498 -130 q 596 -152 567 -137 q 672 -265 672 -191 q 613 -389 671 -351 q 471 -428 555 -428 q 266 -370 352 -428 q 239 -330 239 -349 q 252 -299 239 -311 q 275 -286 264 -286 q 298 -293 285 -286 q 348 -315 311 -300 q 410 -330 385 -330 q 488 -288 488 -328 q 477 -258 487 -270 q 368 -222 445 -222 z "},"ş":{"ha":815,"x_min":65,"x_max":758,"o":"m 705 590 q 486 625 555 625 q 456 616 467 625 q 446 597 446 608 q 502 552 446 574 q 604 507 557 529 q 685 454 651 486 q 758 253 758 387 q 661 47 758 119 q 399 -25 564 -25 q 134 5 233 -25 q 68 36 91 18 l 68 288 q 101 279 77 287 q 180 253 125 271 q 280 236 235 236 q 325 269 325 236 q 284 319 325 295 q 243 342 266 330 q 106 450 147 389 q 65 594 65 511 q 184 814 65 741 q 447 875 285 875 q 674 852 560 875 q 705 846 699 848 l 705 590 m 293 -222 l 357 0 l 450 0 l 408 -129 l 423 -130 q 522 -152 492 -137 q 597 -265 597 -191 q 539 -389 597 -351 q 397 -428 481 -428 q 191 -370 277 -428 q 165 -330 165 -349 q 177 -299 165 -311 q 200 -286 190 -286 q 223 -293 210 -286 q 273 -315 237 -300 q 336 -330 310 -330 q 413 -288 414 -328 q 402 -258 412 -270 q 293 -222 370 -222 z "},"Š":{"ha":981,"x_min":65,"x_max":920,"o":"m 472 -26 q 68 49 168 -26 l 68 359 q 88 353 71 359 q 132 340 105 348 q 261 304 193 321 q 371 288 330 288 q 439 329 439 288 q 380 397 439 361 q 320 431 354 413 q 252 470 287 448 q 116 592 168 522 q 65 768 65 662 q 311 1081 65 1001 q 541 1114 410 1114 q 814 1084 671 1114 q 852 1075 843 1078 l 852 764 q 587 803 668 803 q 541 792 556 803 q 525 768 525 781 q 538 740 525 754 q 585 710 552 725 q 663 675 618 696 q 746 631 707 654 q 920 340 920 524 q 802 69 920 165 q 472 -26 682 -26 m 252 1547 q 241 1593 241 1573 q 265 1613 241 1613 q 334 1573 290 1613 l 486 1433 l 641 1573 q 708 1613 684 1613 q 732 1590 732 1613 q 722 1547 732 1567 l 584 1263 q 488 1202 554 1202 q 432 1218 460 1202 q 391 1263 405 1234 l 252 1547 z "},"š":{"ha":815,"x_min":65,"x_max":758,"o":"m 705 590 q 486 625 555 625 q 456 616 467 625 q 446 597 446 608 q 502 552 446 574 q 604 507 557 529 q 685 454 651 486 q 758 253 758 387 q 661 47 758 119 q 399 -25 564 -25 q 134 5 233 -25 q 68 36 91 18 l 68 288 q 101 279 77 287 q 180 253 125 271 q 280 236 235 236 q 325 269 325 236 q 284 319 325 295 q 243 342 266 330 q 106 450 147 389 q 65 594 65 511 q 184 814 65 741 q 447 875 285 875 q 674 852 560 875 q 705 846 699 848 l 705 590 m 158 1336 q 147 1382 147 1362 q 172 1402 147 1402 q 240 1362 196 1402 l 393 1222 l 547 1362 q 614 1402 590 1402 q 639 1379 639 1402 q 629 1336 639 1356 l 490 1053 q 394 991 460 991 q 339 1007 366 991 q 297 1053 311 1023 l 158 1336 z "},"ţ":{"ha":762,"x_min":45,"x_max":1035,"o":"m 720 61 q 447 -26 591 -26 q 212 55 302 -26 q 122 275 122 137 l 122 628 l 45 628 l 45 843 l 122 843 l 122 1071 l 528 1112 l 528 843 l 720 843 l 720 628 l 528 628 l 528 415 q 571 276 528 319 q 720 233 614 233 l 720 61 m 622 1112 q 728 1182 697 1112 q 744 1253 741 1213 l 622 1253 l 622 1539 l 1035 1539 l 1035 1265 q 808 960 1035 1025 q 622 937 730 937 l 622 1112 z "},"Ť":{"ha":1101,"x_min":39,"x_max":1064,"o":"m 39 1083 l 1064 1083 l 1064 732 l 762 732 l 762 0 l 340 0 l 340 732 l 39 732 l 39 1083 m 320 1548 q 309 1594 309 1573 q 334 1614 309 1614 q 402 1574 358 1614 l 555 1434 l 709 1574 q 777 1614 752 1614 q 801 1591 801 1614 q 791 1548 801 1568 l 652 1264 q 556 1203 623 1203 q 501 1219 528 1203 q 459 1264 473 1235 l 320 1548 z "},"ť":{"ha":762,"x_min":45,"x_max":1035,"o":"m 720 61 q 447 -26 591 -26 q 212 55 302 -26 q 122 275 122 137 l 122 628 l 45 628 l 45 843 l 122 843 l 122 1071 l 528 1112 l 528 843 l 720 843 l 720 628 l 528 628 l 528 415 q 571 276 528 319 q 720 233 614 233 l 720 61 m 622 1112 q 728 1182 697 1112 q 744 1253 741 1213 l 622 1253 l 622 1539 l 1035 1539 l 1035 1265 q 808 960 1035 1025 q 622 937 730 937 l 622 1112 z "},"Ū":{"ha":1183,"x_min":72,"x_max":1111,"o":"m 611 -26 q 72 432 72 -26 l 72 1083 l 500 1083 l 500 444 q 564 319 500 348 q 618 309 587 309 q 729 393 706 309 q 736 447 736 418 l 736 1083 l 1111 1083 l 1111 432 q 611 -26 1111 -26 m 303 1436 l 922 1436 l 922 1234 l 303 1234 l 303 1436 z "},"ū":{"ha":1139,"x_min":77,"x_max":1059,"o":"m 482 450 q 590 228 482 228 q 653 281 644 228 q 656 317 656 297 l 656 843 l 1059 843 l 1059 0 l 836 0 l 739 132 q 490 -20 653 15 q 169 47 291 -63 q 77 268 77 131 l 77 843 l 482 843 l 482 450 m 256 1223 l 875 1223 l 875 1022 l 256 1022 l 256 1223 z "},"Ů":{"ha":1183,"x_min":72,"x_max":1111,"o":"m 611 -26 q 72 432 72 -26 l 72 1083 l 500 1083 l 500 444 q 564 319 500 348 q 618 309 587 309 q 729 393 706 309 q 736 447 736 418 l 736 1083 l 1111 1083 l 1111 432 q 611 -26 1111 -26 m 615 1493 q 525 1435 547 1492 q 519 1402 519 1419 q 545 1337 519 1365 q 606 1308 572 1308 q 688 1336 662 1308 q 713 1390 713 1363 q 687 1465 713 1436 q 615 1493 661 1493 m 395 1400 q 395 1451 395 1400 q 460 1558 395 1501 q 614 1615 525 1614 q 769 1558 703 1615 q 836 1400 836 1501 q 770 1241 836 1299 q 615 1184 705 1184 q 460 1242 525 1184 q 395 1400 395 1299 z "},"ů":{"ha":1139,"x_min":77,"x_max":1059,"o":"m 482 450 q 590 228 482 228 q 653 281 644 228 q 656 317 656 297 l 656 843 l 1059 843 l 1059 0 l 836 0 l 739 132 q 490 -20 653 15 q 169 47 291 -63 q 77 268 77 131 l 77 843 l 482 843 l 482 450 m 568 1280 q 478 1223 500 1280 q 472 1190 472 1206 q 498 1124 472 1153 q 559 1096 525 1096 q 641 1123 615 1096 q 667 1178 667 1151 q 640 1253 667 1224 q 568 1280 614 1281 m 348 1188 q 348 1239 348 1188 q 413 1345 349 1289 q 567 1402 478 1402 q 723 1346 656 1403 q 789 1188 789 1289 q 723 1029 789 1086 q 568 972 658 972 q 413 1029 478 972 q 348 1188 348 1087 z "},"Ű":{"ha":1183,"x_min":72,"x_max":1124,"o":"m 611 -26 q 72 432 72 -26 l 72 1083 l 500 1083 l 500 444 q 564 319 500 348 q 618 309 587 309 q 729 393 706 309 q 736 447 736 418 l 736 1083 l 1111 1083 l 1111 432 q 611 -26 1111 -26 m 441 1242 l 470 1600 l 747 1600 l 524 1234 q 468 1187 495 1187 q 441 1242 441 1187 m 745 1223 l 747 1261 l 834 1600 l 1124 1600 l 833 1234 q 768 1190 798 1190 q 745 1223 745 1190 z "},"ű":{"ha":1139,"x_min":77,"x_max":1078,"o":"m 482 450 q 590 228 482 228 q 653 281 644 228 q 656 317 656 297 l 656 843 l 1059 843 l 1059 0 l 836 0 l 739 132 q 490 -20 653 15 q 169 47 291 -63 q 77 268 77 131 l 77 843 l 482 843 l 482 450 m 394 1030 l 423 1388 l 700 1388 l 477 1022 q 421 975 448 975 q 394 1030 394 975 m 699 1011 l 700 1048 l 787 1388 l 1078 1388 l 786 1022 q 721 978 751 978 q 699 1011 699 978 z "},"Ų":{"ha":1183,"x_min":72,"x_max":1111,"o":"m 611 -26 q 72 432 72 -26 l 72 1083 l 500 1083 l 500 444 q 564 319 500 348 q 618 309 587 309 q 729 393 706 309 q 736 447 736 418 l 736 1083 l 1111 1083 l 1111 432 q 611 -26 1111 -26 m 562 -262 q 622 -328 562 -328 q 751 -292 681 -328 q 775 -285 765 -285 q 797 -297 785 -285 q 810 -329 810 -310 q 783 -368 810 -347 q 569 -427 694 -427 q 395 -342 444 -427 q 386 -221 364 -288 q 566 0 418 -110 l 660 0 q 562 -262 562 -174 z "},"ų":{"ha":1139,"x_min":77,"x_max":1112,"o":"m 482 450 q 590 228 482 228 q 653 281 644 228 q 656 317 656 297 l 656 843 l 1059 843 l 1059 0 l 836 0 l 739 132 q 490 -20 653 15 q 169 47 291 -63 q 77 268 77 131 l 77 843 l 482 843 l 482 450 m 864 -262 q 923 -328 864 -328 q 1053 -292 983 -328 q 1077 -285 1067 -285 q 1099 -297 1086 -285 q 1112 -329 1112 -310 q 1085 -368 1112 -347 q 871 -427 996 -427 q 696 -342 745 -427 q 688 -221 666 -288 q 868 0 720 -110 l 962 0 q 864 -262 864 -174 z "},"Ÿ":{"ha":1165,"x_min":29,"x_max":1136,"o":"m 359 422 l 29 1083 l 513 1083 l 621 861 l 732 1083 l 1136 1083 l 799 422 l 799 0 l 359 0 l 359 422 m 421 1463 q 459 1463 421 1463 q 536 1425 496 1463 q 576 1327 576 1386 q 483 1178 576 1219 q 408 1164 450 1164 q 291 1203 330 1164 q 251 1305 251 1243 q 299 1416 251 1368 q 421 1463 347 1463 m 832 1463 q 870 1463 832 1463 q 947 1425 907 1463 q 987 1327 987 1386 q 895 1178 987 1219 q 821 1164 863 1164 q 704 1203 745 1164 q 663 1305 663 1243 q 710 1415 663 1367 q 832 1463 757 1463 z "},"Ž":{"ha":1251,"x_min":74,"x_max":1171,"o":"m 489 755 l 115 755 l 115 1083 l 1171 1083 l 1171 1000 l 753 310 l 1171 310 l 1171 0 l 74 0 l 74 62 l 489 755 m 408 1547 q 397 1593 397 1573 q 422 1613 397 1613 q 490 1573 446 1613 l 643 1433 l 798 1573 q 865 1613 840 1613 q 889 1590 889 1613 q 879 1547 889 1567 l 741 1263 q 644 1202 711 1202 q 589 1218 616 1202 q 547 1263 562 1234 l 408 1547 z "},"ž":{"ha":1006,"x_min":74,"x_max":946,"o":"m 399 587 l 106 587 l 106 843 l 946 843 l 946 781 l 618 241 l 946 241 l 946 0 l 74 0 l 74 46 l 399 587 m 288 1336 q 277 1382 277 1362 q 301 1402 277 1402 q 370 1362 326 1402 l 522 1222 l 677 1362 q 744 1402 720 1402 q 768 1379 768 1402 q 758 1336 768 1356 l 620 1053 q 524 991 590 991 q 468 1007 496 991 q 427 1053 441 1023 l 288 1336 z "},"Ǆ":{"ha":2399,"x_min":83,"x_max":2318,"o":"m 83 1083 q 621 1114 495 1114 q 820 1090 747 1114 q 950 1025 892 1067 q 1119 814 1062 946 q 1177 548 1177 683 q 1133 312 1177 413 q 1012 142 1089 212 q 603 0 854 -1 l 83 0 l 83 1083 m 505 739 l 505 326 q 583 387 541 357 q 745 629 745 503 q 708 744 745 691 q 613 796 671 796 q 505 739 554 796 m 1636 755 l 1263 755 l 1263 1083 l 2318 1083 l 2318 1000 l 1900 310 l 2318 310 l 2318 0 l 1221 0 l 1221 62 l 1636 755 m 1578 1491 q 1567 1537 1567 1516 q 1592 1557 1567 1557 q 1660 1517 1616 1557 l 1813 1377 l 1967 1517 q 2035 1557 2010 1557 q 2059 1534 2059 1557 q 2049 1491 2059 1511 l 1910 1207 q 1814 1146 1881 1146 q 1759 1162 1786 1146 q 1717 1207 1731 1178 l 1578 1491 z "},"ǅ":{"ha":2216,"x_min":83,"x_max":2156,"o":"m 83 1083 q 621 1114 495 1114 q 820 1090 747 1114 q 950 1025 892 1067 q 1119 814 1062 946 q 1177 548 1177 683 q 1133 312 1177 413 q 1012 142 1089 212 q 603 0 854 -1 l 83 0 l 83 1083 m 505 739 l 505 326 q 583 387 541 357 q 745 629 745 503 q 708 744 745 691 q 613 796 671 796 q 505 739 554 796 m 1609 587 l 1316 587 l 1316 843 l 2156 843 l 2156 781 l 1828 241 l 2156 241 l 2156 0 l 1284 0 l 1284 46 l 1609 587 m 1497 1336 q 1487 1382 1487 1362 q 1511 1402 1487 1402 q 1579 1362 1535 1402 l 1732 1222 l 1887 1362 q 1954 1402 1929 1402 q 1978 1379 1978 1402 q 1968 1336 1978 1356 l 1830 1053 q 1733 991 1800 991 q 1678 1007 1706 991 q 1636 1053 1651 1023 l 1497 1336 z "},"ǆ":{"ha":2176,"x_min":50,"x_max":2116,"o":"m 568 873 q 734 847 649 873 l 734 1141 l 1129 1141 l 1129 0 l 878 0 l 781 140 q 454 -24 656 -24 q 171 86 292 -24 q 50 369 50 197 q 121 652 50 541 q 568 873 260 873 m 734 587 q 684 602 711 602 q 632 591 657 602 q 540 518 581 568 q 503 466 518 494 q 471 348 471 406 q 507 266 471 289 q 538 257 519 258 q 734 346 626 257 l 734 587 m 1569 587 l 1276 587 l 1276 843 l 2116 843 l 2116 781 l 1788 241 l 2116 241 l 2116 0 l 1244 0 l 1244 46 l 1569 587 m 1457 1336 q 1447 1382 1447 1362 q 1471 1402 1447 1402 q 1539 1362 1495 1402 l 1692 1222 l 1847 1362 q 1914 1402 1889 1402 q 1938 1379 1938 1402 q 1928 1336 1938 1356 l 1790 1053 q 1693 991 1760 991 q 1638 1007 1666 991 q 1596 1053 1611 1023 l 1457 1336 z "},"Ǉ":{"ha":1961,"x_min":83,"x_max":1895,"o":"m 83 1083 l 505 1083 l 505 326 l 869 326 l 869 0 l 83 0 l 83 1083 m 1366 -26 q 1187 -3 1276 -26 q 1035 71 1099 21 q 900 385 899 177 l 900 488 l 1276 539 l 1276 435 q 1333 313 1276 340 q 1402 315 1367 296 q 1433 342 1419 324 q 1463 439 1463 380 l 1463 1083 l 1895 1083 l 1895 559 q 1644 27 1895 151 q 1366 -26 1536 -26 z "},"ǈ":{"ha":1579,"x_min":83,"x_max":1511,"o":"m 83 1083 l 505 1083 l 505 326 l 869 326 l 869 0 l 83 0 l 83 1083 m 1196 -225 q 911 -127 1033 -225 l 913 47 q 971 36 940 36 q 1023 53 1002 36 q 1062 96 1044 71 q 1103 215 1103 157 l 1103 842 l 1508 842 l 1508 75 q 1418 -144 1508 -62 q 1196 -225 1329 -225 m 1316 1234 q 1365 1234 1316 1234 q 1463 1192 1415 1234 q 1511 1086 1511 1150 q 1450 967 1511 1021 q 1286 913 1388 913 q 1107 1000 1143 913 q 1097 1054 1097 1024 q 1112 1116 1097 1084 q 1154 1175 1126 1149 q 1316 1234 1217 1234 z "},"ǉ":{"ha":1239,"x_min":83,"x_max":1171,"o":"m 468 0 l 83 0 l 83 1141 l 468 1141 l 468 0 m 856 -225 q 571 -127 692 -225 l 572 47 q 631 36 600 36 q 683 53 662 36 q 722 96 704 71 q 762 215 762 157 l 762 842 l 1168 842 l 1168 75 q 1078 -144 1168 -62 q 856 -225 988 -225 m 976 1234 q 1025 1234 976 1234 q 1122 1192 1074 1234 q 1171 1086 1171 1150 q 1109 967 1171 1021 q 946 913 1048 913 q 767 1000 802 913 q 757 1054 757 1024 q 771 1116 757 1084 q 814 1175 785 1149 q 976 1234 877 1234 z "},"Ǌ":{"ha":2314,"x_min":83,"x_max":2247,"o":"m 83 1083 l 193 1083 l 785 661 l 785 1083 l 1166 1083 l 1166 0 l 1021 0 l 464 372 l 464 0 l 83 0 l 83 1083 m 1719 -26 q 1541 -3 1630 -26 q 1388 71 1452 21 q 1253 385 1253 177 l 1253 488 l 1629 539 l 1629 435 q 1685 313 1629 340 q 1754 315 1719 296 q 1786 342 1772 324 q 1815 439 1815 380 l 1815 1083 l 2247 1083 l 2247 559 q 1997 27 2247 151 q 1719 -26 1889 -26 z "},"ǋ":{"ha":1904,"x_min":83,"x_max":1836,"o":"m 83 1083 l 193 1083 l 785 661 l 785 1083 l 1166 1083 l 1166 0 l 1021 0 l 464 372 l 464 0 l 83 0 l 83 1083 m 1521 -225 q 1236 -127 1358 -225 l 1238 47 q 1296 36 1265 36 q 1348 53 1327 36 q 1387 96 1369 71 q 1428 215 1428 157 l 1428 843 l 1833 843 l 1833 75 q 1743 -144 1833 -62 q 1521 -225 1653 -225 m 1641 1234 q 1691 1234 1641 1234 q 1788 1192 1740 1234 q 1836 1086 1836 1150 q 1774 967 1836 1021 q 1611 913 1713 913 q 1432 1000 1468 913 q 1422 1054 1422 1024 q 1436 1116 1422 1084 q 1478 1175 1451 1149 q 1641 1234 1542 1234 z "},"ǌ":{"ha":1754,"x_min":82,"x_max":1686,"o":"m 539 614 q 485 526 485 614 l 485 0 l 82 0 l 82 843 l 304 843 l 401 711 q 552 831 456 787 q 731 875 648 875 q 974 793 884 875 q 1064 575 1064 712 l 1064 0 l 659 0 l 659 407 q 539 614 659 614 m 1371 -279 q 1086 -229 1202 -279 l 1087 -54 q 1145 -66 1114 -66 q 1198 -48 1177 -66 q 1236 -5 1219 -31 q 1277 113 1277 55 l 1277 842 l 1683 842 l 1683 21 q 1593 -198 1683 -117 q 1371 -279 1503 -279 m 1491 1234 q 1540 1234 1491 1234 q 1638 1192 1590 1234 q 1686 1086 1686 1150 q 1624 967 1685 1021 q 1461 913 1563 913 q 1282 1000 1317 913 q 1272 1054 1272 1024 q 1286 1116 1272 1084 q 1328 1175 1300 1149 q 1491 1234 1392 1234 z "},"Ǳ":{"ha":2425,"x_min":83,"x_max":2344,"o":"m 83 1083 q 621 1114 495 1114 q 820 1090 747 1114 q 950 1025 892 1067 q 1119 814 1062 946 q 1177 548 1177 683 q 1133 312 1177 413 q 1012 142 1089 212 q 603 0 854 -1 l 83 0 l 83 1083 m 505 739 l 505 326 q 583 387 541 357 q 745 629 745 503 q 708 744 745 691 q 613 796 671 796 q 505 739 554 796 m 1663 755 l 1289 755 l 1289 1083 l 2344 1083 l 2344 1000 l 1927 310 l 2344 310 l 2344 0 l 1248 0 l 1248 62 l 1663 755 z "},"ǲ":{"ha":2160,"x_min":83,"x_max":2100,"o":"m 83 1083 q 621 1114 495 1114 q 820 1090 747 1114 q 950 1025 892 1067 q 1119 814 1062 946 q 1177 548 1177 683 q 1133 312 1177 413 q 1012 142 1089 212 q 603 0 854 -1 l 83 0 l 83 1083 m 505 739 l 505 326 q 583 387 541 357 q 745 629 745 503 q 708 744 745 691 q 613 796 671 796 q 505 739 554 796 m 1553 587 l 1260 587 l 1260 843 l 2100 843 l 2100 781 l 1772 241 l 2100 241 l 2100 0 l 1228 0 l 1228 46 l 1553 587 z "},"ǳ":{"ha":2135,"x_min":50,"x_max":2075,"o":"m 568 873 q 734 847 649 873 l 734 1141 l 1129 1141 l 1129 0 l 878 0 l 781 140 q 454 -24 656 -24 q 171 86 292 -24 q 50 369 50 197 q 121 652 50 541 q 568 873 260 873 m 734 587 q 684 602 711 602 q 632 591 657 602 q 540 518 581 568 q 503 466 518 494 q 471 348 471 406 q 507 266 471 289 q 538 257 519 258 q 734 346 626 257 l 734 587 m 1528 587 l 1235 587 l 1235 843 l 2075 843 l 2075 781 l 1747 241 l 2075 241 l 2075 0 l 1203 0 l 1203 46 l 1528 587 z "},"Ǵ":{"ha":1169,"x_min":43,"x_max":1097,"o":"m 949 515 l 1053 516 q 1097 517 1091 516 l 1097 14 q 718 -26 859 -26 q 452 14 576 -26 q 237 129 328 54 q 94 310 146 203 q 43 547 43 416 q 249 960 43 806 q 777 1114 454 1114 q 1027 1080 935 1114 q 1044 1074 1043 1074 l 1044 746 q 861 777 945 777 q 623 696 709 777 q 538 510 537 615 q 578 390 538 437 q 689 343 618 343 q 747 353 727 343 q 749 417 749 378 l 749 515 q 949 515 849 515 m 712 1230 q 649 1182 674 1182 q 625 1219 625 1182 q 630 1256 625 1238 l 727 1594 l 1004 1594 l 712 1230 z "},"ǵ":{"ha":1154,"x_min":50,"x_max":1079,"o":"m 389 -347 l 389 -107 q 464 -119 423 -111 q 544 -126 505 -126 q 615 -117 583 -126 q 674 -83 648 -109 q 730 104 730 -27 q 443 -25 612 -25 q 162 81 275 -26 q 50 387 50 189 q 113 641 50 530 q 280 813 175 751 q 505 875 386 875 q 711 797 624 875 q 760 739 739 772 l 857 843 l 1079 843 l 1079 0 q 844 -343 1080 -261 q 626 -376 749 -376 q 389 -347 504 -376 m 714 587 q 663 602 690 602 q 611 591 636 602 q 519 518 559 568 q 450 350 450 439 q 486 266 450 290 q 578 267 515 246 q 714 346 637 286 l 714 587 m 574 1017 q 512 970 536 970 q 487 1007 487 970 q 492 1044 487 1026 l 589 1382 l 866 1382 l 574 1017 z "},"Ȁ":{"ha":1443,"x_min":22,"x_max":1423,"o":"m 22 0 l 561 1028 q 663 1101 589 1083 q 717 1107 685 1107 q 786 1089 749 1107 q 846 1032 824 1071 l 1423 0 l 873 0 l 831 107 l 538 107 l 501 0 l 22 0 m 571 322 l 790 322 l 686 615 l 571 322 m 632 1192 q 567 1234 604 1192 l 248 1600 l 551 1600 l 649 1261 q 654 1217 654 1242 q 632 1192 654 1192 m 945 1237 q 918 1187 945 1187 q 861 1234 892 1187 l 625 1600 l 901 1600 l 943 1261 q 945 1249 945 1255 l 945 1237 z "},"ȁ":{"ha":1171,"x_min":57,"x_max":1090,"o":"m 176 75 q 149 100 176 75 q 89 202 121 125 q 57 368 57 279 q 75 522 57 457 q 198 740 110 652 q 292 813 240 783 q 515 875 397 875 q 722 797 633 875 q 771 739 750 772 l 868 843 l 1090 843 l 1090 0 l 868 0 l 771 140 q 434 -24 660 -24 q 301 0 372 -25 q 176 75 230 24 m 725 587 q 667 602 701 602 q 595 577 633 602 q 528 517 557 553 q 461 350 461 435 q 498 266 461 290 q 601 272 532 243 q 725 347 671 301 l 725 587 m 538 981 q 473 1023 511 981 l 154 1389 l 458 1389 l 555 1050 q 561 1006 561 1031 q 538 981 561 981 m 851 1026 q 825 977 851 977 q 768 1023 798 977 l 532 1389 l 808 1389 l 850 1050 q 851 1038 851 1044 l 851 1026 z "},"Ȃ":{"ha":1443,"x_min":22,"x_max":1423,"o":"m 22 0 l 561 1028 q 663 1101 589 1083 q 717 1107 685 1107 q 786 1089 749 1107 q 846 1032 824 1071 l 1423 0 l 873 0 l 831 107 l 538 107 l 501 0 l 22 0 m 571 322 l 790 322 l 686 615 l 571 322 m 834 1221 q 801 1323 834 1280 q 709 1367 768 1367 q 616 1323 650 1367 q 583 1221 582 1280 l 332 1221 q 432 1471 332 1366 q 708 1576 532 1576 q 985 1471 884 1576 q 1085 1221 1085 1365 l 834 1221 z "},"ȃ":{"ha":1171,"x_min":57,"x_max":1090,"o":"m 176 75 q 149 100 176 75 q 89 202 121 125 q 57 368 57 279 q 75 522 57 457 q 198 740 110 652 q 292 813 240 783 q 515 875 397 875 q 722 797 633 875 q 771 739 750 772 l 868 843 l 1090 843 l 1090 0 l 868 0 l 771 140 q 434 -24 660 -24 q 301 0 372 -25 q 176 75 230 24 m 725 587 q 667 602 701 602 q 595 577 633 602 q 528 517 557 553 q 461 350 461 435 q 498 266 461 290 q 601 272 532 243 q 725 347 671 301 l 725 587 m 741 1010 q 707 1113 741 1069 q 615 1156 674 1156 q 522 1113 556 1156 q 489 1010 488 1069 l 239 1010 q 338 1260 239 1155 q 614 1365 438 1365 q 891 1260 791 1365 q 991 1010 991 1154 l 741 1010 z "},"Ȅ":{"ha":965,"x_min":18,"x_max":888,"o":"m 83 1083 l 864 1083 l 864 771 l 505 771 l 505 682 l 863 682 l 863 416 l 505 416 l 505 314 l 888 314 l 888 0 l 83 0 l 83 1083 m 402 1192 q 337 1234 374 1192 l 18 1600 l 321 1600 l 419 1261 q 425 1217 425 1242 q 402 1192 425 1192 m 715 1237 q 688 1187 715 1187 q 631 1234 662 1187 l 395 1600 l 671 1600 l 713 1261 q 715 1249 715 1255 l 715 1237 z "},"ȅ":{"ha":1021,"x_min":50,"x_max":961,"o":"m 633 602 q 578 661 633 661 q 495 595 514 655 q 482 529 486 567 q 471 449 478 492 l 619 482 l 632 586 l 633 602 m 542 293 q 505 293 542 293 q 471 294 487 293 q 557 206 471 214 q 603 204 581 204 q 748 231 661 204 q 904 317 835 257 l 946 106 q 489 -25 795 -25 q 187 77 313 -25 q 50 387 50 189 q 127 655 50 536 q 322 820 199 764 q 587 876 445 876 q 866 795 772 876 q 961 596 961 715 q 847 385 960 477 q 542 293 734 293 m 473 979 q 408 1022 446 979 l 89 1388 l 393 1388 l 490 1048 q 496 1005 496 1030 q 473 979 496 979 m 786 1025 q 760 975 786 975 q 703 1022 733 975 l 467 1388 l 743 1388 l 785 1048 q 786 1036 786 1042 l 786 1025 z "},"Ȇ":{"ha":965,"x_min":83,"x_max":888,"o":"m 83 1083 l 864 1083 l 864 771 l 505 771 l 505 682 l 863 682 l 863 416 l 505 416 l 505 314 l 888 314 l 888 0 l 83 0 l 83 1083 m 604 1221 q 570 1323 604 1280 q 478 1367 537 1367 q 385 1323 419 1367 q 352 1221 351 1280 l 102 1221 q 201 1471 102 1366 q 477 1576 301 1576 q 754 1471 654 1576 q 854 1221 854 1365 l 604 1221 z "},"ȇ":{"ha":1021,"x_min":50,"x_max":961,"o":"m 633 602 q 578 661 633 661 q 495 595 514 655 q 482 529 486 567 q 471 449 478 492 l 619 482 l 632 586 l 633 602 m 542 293 q 505 293 542 293 q 471 294 487 293 q 557 206 471 214 q 603 204 581 204 q 748 231 661 204 q 904 317 835 257 l 946 106 q 489 -25 795 -25 q 187 77 313 -25 q 50 387 50 189 q 127 655 50 536 q 322 820 199 764 q 587 876 445 876 q 866 795 772 876 q 961 596 961 715 q 847 385 960 477 q 542 293 734 293 m 675 1008 q 642 1111 675 1068 q 550 1154 609 1154 q 457 1111 491 1154 q 424 1008 423 1068 l 174 1008 q 273 1259 174 1154 q 549 1364 373 1364 q 826 1258 726 1364 q 926 1008 926 1153 l 675 1008 z "},"Ȉ":{"ha":587,"x_min":-161,"x_max":536,"o":"m 505 0 l 83 0 l 83 1083 l 505 1083 l 505 0 m 224 1192 q 159 1234 196 1192 l -161 1600 l 143 1600 l 241 1261 q 246 1217 246 1242 q 224 1192 246 1192 m 536 1237 q 510 1187 536 1187 q 453 1234 484 1187 l 217 1600 l 493 1600 l 535 1261 q 536 1249 536 1255 l 536 1237 z "},"ȉ":{"ha":475,"x_min":-220,"x_max":477,"o":"m 433 0 l 41 0 l 41 843 l 433 843 l 433 0 m 164 981 q 99 1023 136 981 l -220 1389 l 83 1389 l 181 1050 q 186 1006 186 1031 q 164 981 186 981 m 477 1026 q 450 977 477 977 q 393 1023 424 977 l 157 1389 l 433 1389 l 475 1050 q 477 1038 477 1044 l 477 1026 z "},"Ȋ":{"ha":587,"x_min":-76,"x_max":677,"o":"m 505 0 l 83 0 l 83 1083 l 505 1083 l 505 0 m 426 1221 q 393 1323 426 1280 q 300 1367 359 1367 q 208 1323 241 1367 q 174 1221 174 1280 l -76 1221 q 24 1471 -76 1366 q 300 1576 123 1576 q 576 1471 476 1576 q 677 1221 677 1365 l 426 1221 z "},"ȋ":{"ha":475,"x_min":-136,"x_max":617,"o":"m 433 0 l 41 0 l 41 843 l 433 843 l 433 0 m 366 1010 q 333 1113 366 1069 q 241 1156 300 1156 q 148 1113 182 1156 q 115 1010 114 1069 l -136 1010 q -36 1260 -136 1155 q 240 1365 64 1365 q 517 1260 416 1365 q 617 1010 617 1154 l 366 1010 z "},"Ȍ":{"ha":1317,"x_min":50,"x_max":1265,"o":"m 839 671 q 729 786 839 786 q 623 726 682 786 q 501 511 536 636 q 490 439 490 472 q 604 326 490 326 q 708 387 650 326 q 828 604 793 476 q 839 671 839 643 m 654 -26 q 236 130 413 -26 q 138 243 180 179 q 50 545 50 378 q 132 841 50 712 q 350 1042 213 970 q 634 1114 487 1114 q 892 1074 781 1114 q 1087 961 1004 1035 q 1218 781 1171 888 q 1265 541 1265 675 q 1181 244 1265 374 q 955 44 1096 114 q 654 -26 814 -26 m 575 1192 q 510 1234 547 1192 l 191 1600 l 494 1600 l 592 1261 q 597 1217 597 1242 q 575 1192 597 1192 m 888 1237 q 861 1187 888 1187 q 804 1234 835 1187 l 568 1600 l 844 1600 l 886 1261 q 888 1249 888 1255 l 888 1237 z "},"ȍ":{"ha":1076,"x_min":50,"x_max":1025,"o":"m 666 603 q 631 610 652 610 q 584 597 610 610 q 533 563 558 585 q 444 451 480 517 q 408 330 408 385 q 450 256 408 275 q 487 249 465 249 q 532 262 509 249 q 580 298 556 275 q 667 411 629 345 q 704 531 704 478 q 666 603 704 584 m 534 -25 q 200 98 340 -25 q 50 426 50 228 q 191 749 50 623 q 537 875 331 875 q 884 752 743 875 q 1025 422 1024 629 q 958 189 1025 290 q 777 31 890 87 q 534 -25 663 -24 m 456 979 q 391 1022 428 979 l 71 1388 l 375 1388 l 473 1048 q 478 1005 478 1030 q 456 979 478 979 m 768 1025 q 742 975 768 975 q 685 1022 715 975 l 449 1388 l 725 1388 l 767 1048 q 768 1036 768 1042 l 768 1025 z "},"Ȏ":{"ha":1317,"x_min":50,"x_max":1265,"o":"m 839 671 q 729 786 839 786 q 623 726 682 786 q 501 511 536 636 q 490 439 490 472 q 604 326 490 326 q 708 387 650 326 q 828 604 793 476 q 839 671 839 643 m 654 -26 q 236 130 413 -26 q 138 243 180 179 q 50 545 50 378 q 132 841 50 712 q 350 1042 213 970 q 634 1114 487 1114 q 892 1074 781 1114 q 1087 961 1004 1035 q 1218 781 1171 888 q 1265 541 1265 675 q 1181 244 1265 374 q 955 44 1096 114 q 654 -26 814 -26 m 777 1221 q 744 1323 777 1280 q 652 1367 711 1367 q 559 1323 593 1367 q 526 1221 525 1280 l 275 1221 q 375 1471 275 1366 q 651 1576 475 1576 q 928 1471 827 1576 q 1028 1221 1028 1365 l 777 1221 z "},"ȏ":{"ha":1076,"x_min":50,"x_max":1025,"o":"m 666 603 q 631 610 652 610 q 584 597 610 610 q 533 563 558 585 q 444 451 480 517 q 408 330 408 385 q 450 256 408 275 q 487 249 465 249 q 532 262 509 249 q 580 298 556 275 q 667 411 629 345 q 704 531 704 478 q 666 603 704 584 m 534 -25 q 200 98 340 -25 q 50 426 50 228 q 191 749 50 623 q 537 875 331 875 q 884 752 743 875 q 1025 422 1024 629 q 958 189 1025 290 q 777 31 890 87 q 534 -25 663 -24 m 657 1008 q 624 1111 657 1068 q 532 1154 591 1154 q 439 1111 473 1154 q 406 1008 405 1068 l 155 1008 q 255 1259 155 1154 q 531 1364 355 1364 q 808 1258 707 1364 q 908 1008 908 1153 l 657 1008 z "},"Ȑ":{"ha":1300,"x_min":83,"x_max":1253,"o":"m 770 741 q 699 836 770 836 q 614 814 668 836 l 524 777 l 524 511 q 770 741 770 603 m 1173 729 q 958 385 1173 512 l 1253 0 l 717 0 l 526 314 l 526 0 l 83 0 l 83 1083 q 647 1114 513 1114 q 850 1097 781 1114 q 1126 909 1043 1053 q 1173 729 1172 826 m 476 1192 q 411 1234 448 1192 l 92 1600 l 395 1600 l 493 1261 q 498 1217 498 1242 q 476 1192 498 1192 m 789 1237 q 762 1187 789 1187 q 705 1234 736 1187 l 469 1600 l 745 1600 l 787 1261 q 789 1249 789 1255 l 789 1237 z "},"ȑ":{"ha":722,"x_min":-102,"x_max":685,"o":"m 685 525 q 557 479 623 525 q 490 393 491 434 l 490 0 l 82 0 l 82 843 l 490 843 l 490 753 q 576 836 525 805 q 685 873 627 867 l 685 525 m 282 981 q 217 1023 254 981 l -102 1389 l 201 1389 l 299 1050 q 304 1006 304 1031 q 282 981 304 981 m 595 1026 q 568 977 595 977 q 511 1023 542 977 l 275 1389 l 551 1389 l 593 1050 q 595 1038 595 1044 l 595 1026 z "},"Ȓ":{"ha":1300,"x_min":83,"x_max":1253,"o":"m 770 741 q 699 836 770 836 q 614 814 668 836 l 524 777 l 524 511 q 770 741 770 603 m 1173 729 q 958 385 1173 512 l 1253 0 l 717 0 l 526 314 l 526 0 l 83 0 l 83 1083 q 647 1114 513 1114 q 850 1097 781 1114 q 1126 909 1043 1053 q 1173 729 1172 826 m 678 1221 q 645 1323 678 1280 q 553 1367 612 1367 q 460 1323 494 1367 q 427 1221 426 1280 l 176 1221 q 276 1471 176 1366 q 552 1576 376 1576 q 829 1471 728 1576 q 929 1221 929 1365 l 678 1221 z "},"ȓ":{"ha":722,"x_min":-18,"x_max":735,"o":"m 685 525 q 557 479 623 525 q 490 393 491 434 l 490 0 l 82 0 l 82 843 l 490 843 l 490 753 q 576 836 525 805 q 685 873 627 867 l 685 525 m 484 1010 q 451 1113 484 1069 q 359 1156 418 1156 q 266 1113 300 1156 q 233 1010 232 1069 l -18 1010 q 82 1260 -18 1155 q 358 1365 182 1365 q 635 1260 534 1365 q 735 1010 735 1154 l 484 1010 z "},"Ȕ":{"ha":1183,"x_min":72,"x_max":1111,"o":"m 611 -26 q 72 432 72 -26 l 72 1083 l 500 1083 l 500 444 q 564 319 500 348 q 618 309 587 309 q 729 393 706 309 q 736 447 736 418 l 736 1083 l 1111 1083 l 1111 432 q 611 -26 1111 -26 m 541 1192 q 476 1234 513 1192 l 157 1600 l 460 1600 l 558 1261 q 564 1217 564 1242 q 541 1192 564 1192 m 854 1237 q 827 1187 854 1187 q 770 1234 801 1187 l 534 1600 l 810 1600 l 852 1261 q 854 1249 854 1255 l 854 1237 z "},"ȕ":{"ha":1139,"x_min":77,"x_max":1059,"o":"m 482 450 q 590 228 482 228 q 653 281 644 228 q 656 317 656 297 l 656 843 l 1059 843 l 1059 0 l 836 0 l 739 132 q 490 -20 653 15 q 169 47 291 -63 q 77 268 77 131 l 77 843 l 482 843 l 482 450 m 494 979 q 429 1022 467 979 l 110 1388 l 414 1388 l 511 1048 q 517 1005 517 1030 q 494 979 517 979 m 807 1025 q 781 975 807 975 q 724 1022 754 975 l 488 1388 l 764 1388 l 806 1048 q 807 1036 807 1042 l 807 1025 z "},"Ȗ":{"ha":1183,"x_min":72,"x_max":1111,"o":"m 611 -26 q 72 432 72 -26 l 72 1083 l 500 1083 l 500 444 q 564 319 500 348 q 618 309 587 309 q 729 393 706 309 q 736 447 736 418 l 736 1083 l 1111 1083 l 1111 432 q 611 -26 1111 -26 m 743 1221 q 710 1323 743 1280 q 618 1367 677 1367 q 525 1323 559 1367 q 492 1221 491 1280 l 241 1221 q 341 1471 241 1366 q 617 1576 441 1576 q 894 1471 793 1576 q 994 1221 994 1365 l 743 1221 z "},"ȗ":{"ha":1139,"x_min":77,"x_max":1059,"o":"m 482 450 q 590 228 482 228 q 653 281 644 228 q 656 317 656 297 l 656 843 l 1059 843 l 1059 0 l 836 0 l 739 132 q 490 -20 653 15 q 169 47 291 -63 q 77 268 77 131 l 77 843 l 482 843 l 482 450 m 696 1008 q 663 1111 696 1068 q 571 1154 630 1154 q 478 1111 512 1154 q 445 1008 444 1068 l 195 1008 q 294 1259 195 1154 q 570 1364 394 1364 q 847 1258 747 1364 q 947 1008 947 1153 l 696 1008 z "},"ȷ":{"ha":654,"x_min":20,"x_max":616,"o":"m 304 -225 q 20 -127 141 -225 l 21 47 q 79 36 48 36 q 132 53 111 36 q 170 96 153 71 q 211 215 211 157 l 211 843 l 616 843 l 616 75 q 527 -144 616 -62 q 304 -225 437 -225 z "},"ˆ":{"ha":555,"x_min":32,"x_max":524,"o":"m 182 964 q 223 1009 196 994 q 279 1025 251 1025 q 375 964 345 1025 l 514 681 q 524 638 524 662 q 504 614 524 614 q 432 654 475 614 l 278 794 l 125 654 q 56 614 80 614 q 32 637 32 614 q 43 681 32 656 l 182 964 z "},"ˇ":{"ha":533,"x_min":21,"x_max":513,"o":"m 32 954 q 21 1000 21 980 q 45 1021 21 1021 q 114 981 70 1021 l 267 840 l 421 981 q 488 1021 464 1021 q 513 998 513 1021 q 503 954 513 975 l 364 671 q 268 610 334 610 q 213 626 240 610 q 171 671 185 642 l 32 954 z "},"˘":{"ha":893,"x_min":28,"x_max":864,"o":"m 864 994 q 754 701 864 823 q 446 580 644 580 q 137 702 247 580 q 28 998 28 825 l 319 998 q 352 870 319 922 q 445 817 386 817 q 538 868 505 817 q 571 994 571 919 l 864 994 z "},"˙":{"ha":471,"x_min":28,"x_max":441,"o":"m 250 1028 q 297 1028 250 1028 q 392 974 344 1028 q 441 839 441 920 q 382 693 441 758 q 223 629 322 629 q 76 682 123 629 q 29 815 28 734 q 92 962 29 895 q 250 1028 155 1028 z "},"˚":{"ha":498,"x_min":28,"x_max":469,"o":"m 249 900 q 159 842 180 899 q 153 809 153 826 q 179 744 153 772 q 240 715 205 715 q 321 743 296 715 q 347 798 347 770 q 321 872 347 844 q 249 900 294 901 m 29 808 q 29 858 29 808 q 94 965 29 909 q 248 1022 159 1021 q 403 966 337 1023 q 469 807 469 909 q 404 649 469 706 q 249 591 338 591 q 94 649 159 591 q 29 808 28 707 z "},"˛":{"ha":472,"x_min":35,"x_max":458,"o":"m 211 -262 q 270 -328 211 -328 q 400 -292 330 -328 q 424 -285 414 -285 q 446 -297 433 -285 q 458 -329 458 -310 q 432 -368 458 -347 q 218 -427 343 -427 q 43 -342 92 -427 q 35 -221 13 -288 q 215 0 67 -110 l 309 0 q 211 -262 211 -174 z "},"˜":{"ha":745,"x_min":98,"x_max":732,"o":"m 721 846 q 732 835 732 846 q 636 610 732 645 q 569 599 607 599 q 484 610 531 599 q 350 646 437 621 q 219 671 262 671 q 155 657 176 671 q 125 637 134 643 q 111 631 116 631 q 98 642 98 631 q 199 864 98 830 q 270 875 231 875 q 453 840 328 875 q 610 804 577 804 q 658 811 643 804 q 686 825 673 817 q 706 839 698 833 q 721 846 715 846 z "},"˝":{"ha":864,"x_min":98,"x_max":782,"o":"m 98 650 l 127 1007 l 404 1007 l 182 642 q 125 595 153 595 q 98 650 98 595 m 403 631 l 404 668 l 492 1007 l 782 1007 l 490 642 q 425 597 455 597 q 403 631 403 597 z "},"̇":{"ha":471,"x_min":28,"x_max":441,"o":"m 250 1028 q 297 1028 250 1028 q 392 974 344 1028 q 441 839 441 920 q 382 693 441 758 q 223 629 322 629 q 76 682 123 629 q 29 815 28 734 q 92 962 29 895 q 250 1028 155 1028 z "},"̏":{"ha":864,"x_min":78,"x_max":775,"o":"m 463 599 q 397 642 435 599 l 78 1007 l 382 1007 l 479 668 q 485 624 485 650 q 463 599 485 599 m 775 644 q 749 595 775 595 q 692 642 722 595 l 456 1007 l 732 1007 l 774 668 q 775 656 775 662 l 775 644 z "},"̑":{"ha":895,"x_min":71,"x_max":823,"o":"m 572 628 q 539 731 572 688 q 447 774 506 774 q 354 731 388 774 q 321 628 320 688 l 71 628 q 170 878 71 773 q 446 983 270 983 q 723 878 623 983 q 823 628 823 772 l 572 628 z "},"̦":{"ha":485,"x_min":36,"x_max":449,"o":"m 36 -518 q 142 -448 111 -518 q 158 -378 155 -417 l 36 -378 l 36 -92 l 449 -92 l 449 -366 q 222 -671 449 -606 q 36 -693 144 -693 l 36 -518 z "},"–":{"ha":785,"x_min":83,"x_max":703,"o":"m 83 618 l 703 618 l 703 416 l 83 416 l 83 618 z "},"—":{"ha":785,"x_min":83,"x_max":703,"o":"m 83 618 l 703 618 l 703 416 l 83 416 l 83 618 z "},"‘":{"ha":550,"x_min":56,"x_max":468,"o":"m 468 909 q 361 840 390 909 q 346 770 347 808 l 468 770 l 468 484 l 56 484 l 56 757 q 282 1062 56 997 q 468 1084 360 1084 l 468 909 z "},"’":{"ha":549,"x_min":83,"x_max":496,"o":"m 83 659 q 190 728 159 659 q 205 799 203 760 l 83 799 l 83 1084 l 496 1084 l 496 811 q 269 506 496 571 q 83 484 191 484 l 83 659 z "},"‚":{"ha":549,"x_min":83,"x_max":496,"o":"m 83 -140 q 190 -71 159 -140 q 205 0 203 -39 l 83 0 l 83 286 l 496 286 l 496 12 q 269 -293 496 -228 q 83 -315 191 -315 l 83 -140 z "},"“":{"ha":1076,"x_min":71,"x_max":993,"o":"m 484 909 q 376 840 410 909 q 361 770 363 808 l 484 770 l 484 484 l 71 484 l 71 757 q 298 1062 71 997 q 484 1084 376 1084 l 484 909 m 993 909 q 886 840 915 909 q 871 770 872 808 l 993 770 l 993 484 l 581 484 l 581 757 q 807 1062 581 997 q 993 1084 885 1084 l 993 909 z "},"”":{"ha":1075,"x_min":83,"x_max":1006,"o":"m 593 659 q 700 728 669 659 q 715 799 713 760 l 593 799 l 593 1084 l 1006 1084 l 1006 811 q 779 506 1006 571 q 593 484 701 484 l 593 659 m 83 659 q 190 728 159 659 q 205 799 203 760 l 83 799 l 83 1084 l 496 1084 l 496 811 q 269 506 496 571 q 83 484 191 484 l 83 659 z "},"„":{"ha":1075,"x_min":83,"x_max":1006,"o":"m 593 -140 q 700 -71 669 -140 q 715 0 713 -39 l 593 0 l 593 286 l 1006 286 l 1006 12 q 779 -293 1006 -228 q 593 -315 701 -315 l 593 -140 m 83 -140 q 190 -71 159 -140 q 205 0 203 -39 l 83 0 l 83 286 l 496 286 l 496 12 q 269 -293 496 -228 q 83 -315 191 -315 l 83 -140 z "},"•":{"ha":515,"x_min":-4,"x_max":519,"o":"m 275 485 q 385 465 339 485 q 460 411 430 445 q 519 240 519 345 q 446 55 519 136 q 245 -25 373 -25 q 57 44 118 -25 q -4 216 -4 113 q 75 402 -4 319 q 275 485 153 485 z "},"‹":{"ha":685,"x_min":0,"x_max":604,"o":"m 604 611 l 453 519 l 604 432 l 604 94 l 26 482 q 0 535 0 496 q 26 590 0 574 l 604 994 l 604 611 z "},"›":{"ha":688,"x_min":83,"x_max":688,"o":"m 83 478 l 235 570 l 83 657 l 83 994 l 661 607 q 688 555 688 593 q 661 498 688 517 l 83 94 l 83 478 z "},"⁄":{"ha":794,"x_min":14,"x_max":790,"o":"m 193 0 l 14 0 l 389 1083 l 790 1083 l 193 0 z "},"⁴":{"ha":1035,"x_min":32,"x_max":971,"o":"m 32 372 l 372 868 l 893 868 l 893 380 l 971 380 l 971 117 l 893 117 l 893 0 l 526 0 l 526 117 l 32 117 l 32 372 m 370 372 l 526 372 l 526 618 l 370 372 z "},"€":{"ha":1128,"x_min":22,"x_max":1053,"o":"m 657 436 q 861 304 703 304 q 1053 363 941 304 l 1053 12 q 741 -46 905 -46 q 339 81 513 -46 q 140 436 166 209 l 22 436 l 22 526 l 136 526 q 143 611 140 596 l 22 611 l 22 701 l 163 701 q 391 1018 222 902 q 796 1135 559 1135 q 1032 1101 943 1135 l 1032 814 q 941 829 983 829 q 796 795 864 829 q 688 701 728 761 l 962 701 l 962 611 l 647 611 q 640 549 640 580 l 640 526 l 962 526 l 962 436 l 657 436 z "},"™":{"ha":1830,"x_min":33,"x_max":1789,"o":"m 33 1084 l 757 1084 l 757 838 l 545 838 l 545 318 l 244 318 l 244 838 l 33 838 l 33 1084 m 822 1084 l 929 1084 l 1301 737 l 1683 1084 l 1789 1084 l 1789 318 l 1474 318 l 1474 566 l 1276 353 l 1086 561 l 1086 318 l 822 318 l 822 1084 z "},"":{"ha":485,"x_min":36,"x_max":449,"o":"m 36 -518 q 142 -448 111 -518 q 158 -378 155 -417 l 36 -378 l 36 -92 l 449 -92 l 449 -366 q 222 -671 449 -606 q 36 -693 144 -693 l 36 -518 z "},"ﬀ":{"ha":1435,"x_min":46,"x_max":1394,"o":"m 1393 958 q 1328 968 1360 968 q 1238 934 1269 968 q 1203 843 1208 900 l 1394 843 l 1394 628 l 1203 628 l 1203 0 l 798 0 l 798 628 l 529 628 l 529 0 l 123 0 l 123 628 l 46 628 l 46 843 l 123 843 l 123 986 q 213 1164 123 1099 q 452 1231 302 1230 q 720 1161 601 1231 l 720 958 q 654 968 686 968 q 564 934 595 968 q 529 843 533 901 l 798 843 l 798 986 q 887 1164 798 1099 q 1125 1231 976 1230 q 1393 1161 1274 1231 l 1393 958 z "},"ﬁ":{"ha":1276,"x_min":46,"x_max":1206,"o":"m 733 986 q 675 996 706 996 q 574 954 614 996 q 529 843 534 913 l 1206 843 l 1206 0 l 814 0 l 814 628 l 529 628 l 529 0 l 123 0 l 123 628 l 46 628 l 46 843 l 123 843 l 123 1014 q 213 1193 123 1127 q 436 1258 303 1258 q 733 1189 610 1258 l 733 986 m 1025 1276 q 1070 1276 1025 1276 q 1160 1229 1115 1276 q 1206 1110 1206 1181 q 1149 983 1206 1039 q 998 926 1093 926 q 859 973 903 926 q 815 1089 815 1019 q 876 1218 815 1159 q 1025 1276 936 1276 z "},"ﬂ":{"ha":1286,"x_min":46,"x_max":1204,"o":"m 503 905 q 513 843 503 876 l 721 843 l 721 628 l 529 628 l 529 0 l 123 0 l 123 628 l 46 628 l 46 843 l 123 843 l 123 917 q 462 1230 123 1179 q 656 1246 565 1246 q 967 1220 812 1246 q 1204 1161 1122 1194 l 1204 0 l 812 0 l 812 1000 q 664 1022 743 1022 q 503 905 503 1022 z "},"ﬃ":{"ha":2070,"x_min":46,"x_max":1999,"o":"m 1495 986 q 1436 996 1468 996 q 1336 955 1375 996 q 1291 843 1296 913 l 1990 843 l 1990 0 l 1605 0 l 1605 628 l 1291 628 l 1291 0 l 885 0 l 885 628 l 585 628 l 585 0 l 179 0 l 179 628 l 46 628 l 46 843 l 179 843 l 179 986 q 269 1164 179 1099 q 507 1231 358 1230 q 775 1161 656 1231 l 775 958 q 709 968 742 968 q 620 934 650 968 q 585 843 589 901 l 885 843 l 885 1014 q 974 1192 884 1126 q 1197 1258 1063 1258 q 1495 1189 1370 1258 l 1495 986 m 1804 1233 q 1853 1233 1804 1233 q 1951 1192 1903 1234 q 1999 1086 1999 1150 q 1937 967 1999 1021 q 1776 913 1876 913 q 1630 952 1676 913 q 1585 1057 1585 991 q 1645 1178 1585 1123 q 1804 1233 1705 1233 z "},"ﬄ":{"ha":1922,"x_min":46,"x_max":1841,"o":"m 1166 905 q 1177 843 1166 876 l 1385 843 l 1385 628 l 1193 628 l 1193 0 l 787 0 l 787 628 l 529 628 l 529 0 l 123 0 l 123 628 l 46 628 l 46 843 l 123 843 l 123 986 q 213 1164 123 1099 q 452 1231 302 1230 q 720 1161 601 1231 l 720 958 q 654 968 686 968 q 564 934 595 968 q 529 843 533 901 l 787 843 l 787 917 q 1126 1230 787 1179 q 1321 1246 1229 1246 q 1615 1220 1474 1246 q 1841 1161 1756 1195 l 1841 0 l 1457 0 l 1457 1000 q 1328 1022 1394 1022 q 1166 905 1166 1022 z "}}}
